<svg width="1000" height="1000" viewBox="0 0 1000 1000" fill="none" xmlns="http://www.w3.org/2000/svg">
<g id="Data Visualization - Information" clip-path="url(#clip0_212_61)">
<path id="Circuit-Map" d="M1575.68 -118.208C1571.48 -72.014 1230.09 371.272 1139.69 392C1049.92 412.582 975.685 358.5 951.185 358.5C891.185 358.5 810 458.5 793 481.5C772.955 508.619 622.699 873.559 626.898 1012.14C631.097 1150.72 635.097 1246.61 567.913 1267.61C500.729 1288.6 239.879 1174.39 214.685 1124C189.491 1073.61 341.164 961.048 404.15 877.059C467.136 793.071 506.102 588.579 581.685 429C657.268 269.421 926.232 -24.4204 1067.6 -177L1325.68 -402" stroke="white" stroke-opacity="0.2" stroke-width="130" stroke-linecap="round" stroke-linejoin="round"/>
<path id="First" d="M681.5 358C636 418 546.336 664 495.684 829C446.198 990.2 243.835 1051.5 300.184 1103.5C347.738 1147.38 564.35 1164.33 670.684 1162C672.35 1098.83 689.684 978 713.684 861C738.031 742.305 800.765 575.705 834.684 528C863.835 487 917.798 425.383 940.184 416.5C971.684 404 1008.68 455.5 1100.68 452.5C1174.18 450.103 1265.68 372 1248.68 259" stroke="#FBBA72" stroke-width="30" stroke-linecap="round" stroke-linejoin="round"/>
<path id="Second" d="M651 353.5C521.001 620 482 794 455.685 850C408.26 950.923 249.184 1049 258.184 1069.5C265.498 1086.16 346.185 1127.33 399.685 1172L646.684 1074.5C670.684 904.5 718.184 678.5 794.184 541C823.604 487.774 882.184 414 929.684 389.5C977.184 365 1030.62 442.43 1119.68 421C1186.18 405 1187.68 366.833 1214.68 347.5" stroke="#CA5310" stroke-width="30" stroke-linecap="round" stroke-linejoin="round"/>
<path id="Third" d="M622.5 357C457.5 701 465.186 772.5 420.186 854.5C361.807 960.879 164.685 1071.5 224.685 1097C290.827 1125.11 584.185 1125.5 585.685 1120C586.885 1115.6 610.852 1064.83 622.685 1040C650.685 832 711.256 594.087 810.185 467.5C856.685 408 918.321 330.131 984.185 362.5C1101.69 420.246 1137.18 398.5 1203.68 335" stroke="#BB4D00" stroke-width="30" stroke-linecap="round" stroke-linejoin="round"/>
<path id="Fourth" d="M592 361.5C434.5 667 433.685 788 382.185 858C282.661 993.275 88.1845 1101.5 147.185 1094.5C221.391 1085.7 458.018 1167.33 582.185 1162L595.684 1038C619.685 858 655.185 625.5 817.685 411C870.184 345.5 937.827 303.041 1009.68 342C1134.18 409.5 1174.18 322 1196.18 281" stroke="#8F250C" stroke-width="30" stroke-linecap="round" stroke-linejoin="round"/>
<path id="Fifth" d="M560 362C426.5 614 426.511 742.138 344.5 862C266.5 976 -62.8152 1150.5 61.1848 1209.5C185.185 1268.5 555.684 1268 555.684 1213C555.684 1158 558.353 1114.5 572.684 998C588.184 872 626.674 685.047 704.184 534C782.184 382 897.977 257.767 1010.68 312C1168.18 395 1188.18 252 1247.18 184" stroke="#691E06" stroke-width="30" stroke-linecap="round" stroke-linejoin="round"/>
<text id="First-Time" transform="translate(675 328.376) rotate(-54.9198)" fill="white" xml:space="preserve" style="white-space: pre" font-family="SF Pro Display" font-size="20" letter-spacing="0em"><tspan x="0" y="28.1094">1:14.279</tspan></text>
<text id="Second-Time" transform="translate(650 321.953) rotate(-57.6088)" fill="white" xml:space="preserve" style="white-space: pre" font-family="SF Pro Display" font-size="20" letter-spacing="0em"><tspan x="0" y="28.1094">1:14.301</tspan></text>
<text id="Third-Time" transform="translate(614 325.465) rotate(-59.0524)" fill="white" xml:space="preserve" style="white-space: pre" font-family="SF Pro Display" font-size="20" letter-spacing="0em"><tspan x="0" y="28.1094">1:14.371</tspan></text>
<text id="Fourth-Time" transform="translate(582 330.722) rotate(-57.9512)" fill="white" xml:space="preserve" style="white-space: pre" font-family="SF Pro Display" font-size="20" letter-spacing="0em"><tspan x="0" y="28.1094">1:14.567</tspan></text>
<text id="Fifth-Time" transform="translate(552 336.382) rotate(-57.901)" fill="white" xml:space="preserve" style="white-space: pre" font-family="SF Pro Display" font-size="20" letter-spacing="0em"><tspan x="0" y="28.1094">1:14.788</tspan></text>
<text id="Year" fill="white" xml:space="preserve" style="white-space: pre" font-family="SF Pro Display" font-size="50" font-weight="600" letter-spacing="0em"><tspan x="70" y="361.773">2019</tspan></text>
<text id="Circuit-Name" fill="white" fill-opacity="0.6" xml:space="preserve" style="white-space: pre" font-family="SF Pro Display" font-size="30" font-weight="600" letter-spacing="0em"><tspan x="70" y="399.664">Circuit de&#10;</tspan><tspan x="70" y="429.664">Monaco</tspan></text>
<text id="Driver" fill="white" xml:space="preserve" style="white-space: pre" font-family="SF Pro Display" font-size="30" font-weight="bold" letter-spacing="0em"><tspan x="70" y="210.664">Pierre Gasly</tspan></text>
<text id="Time" fill="white" fill-opacity="0.4" xml:space="preserve" style="white-space: pre" font-family="SF Pro Display" font-size="40" font-weight="800" letter-spacing="0em"><tspan x="70" y="172.219">1:14.279</tspan></text>
</g>
<defs>
<clipPath id="clip0_212_61">
<rect width="1000" height="1000" fill="white"/>
</clipPath>
</defs>
</svg>
