<svg width="1000" height="800" viewBox="0 0 1000 1000" fill="none" xmlns="http://www.w3.org/2000/svg">
<g id="Frame 9" clip-path="url(#clip0_242_327)">
<path id="Vector 32" d="M327 -109L518 442L618 431L631 285L496 -145L327 -109Z" fill="#303030" stroke="black"/>
<path id="Vector" d="M523.117 454.733C521.888 451.682 519.358 445.321 516.957 439.219C513.022 429.219 522.177 420.28 527.1 418.719C534.415 416.4 545.66 419.719 549.015 428.219C552.577 437.247 556.491 447.12 558.254 451.506C559.191 453.736 561.65 460.366 563.817 466.174C579.863 509.534 585.367 534.294 591.341 589.681C592.805 603.411 594.678 619.604 595.498 625.765C597.665 642.194 597.958 661.673 596.377 686.316C594.854 709.785 594.854 715.946 596.318 744.461C598.426 784.593 600.359 800.669 610.958 866.618C616.17 898.712 617.927 915.258 620.035 951.107C620.562 959.673 621.324 970.234 621.792 974.576C622.261 978.918 623.08 988.951 623.549 996.872C624.017 1004.79 624.779 1014.42 625.247 1018.29C625.774 1022.16 626.301 1026.91 626.477 1028.85C626.653 1030.78 627.355 1035.54 627.941 1039.41C628.585 1043.28 629.639 1050.56 630.283 1055.54C631.513 1065.23 634.207 1076.02 636.315 1079.89C638.599 1084.06 645.333 1086.58 658.568 1088.17C675.785 1090.22 707.349 1095.03 727.611 1098.67C748.283 1102.31 789.393 1111.4 824.997 1120.09C833.079 1122.08 853.224 1126.95 869.796 1130.94C886.369 1134.93 911.023 1140.97 924.551 1144.32C963.728 1154.12 984.692 1158.63 1024.98 1165.85C1040.38 1168.61 1058.77 1172.3 1094.96 1179.87C1133.14 1187.79 1159.32 1189.32 1193.34 1185.45C1226.9 1181.69 1236.62 1174.89 1247.69 1147.66C1265.78 1103.13 1266.49 1049.8 1249.33 1021.69C1242.77 1010.95 1227.13 992.178 1217.53 983.436C1211.09 977.627 1201.02 970.058 1194.52 966.069C1188.6 962.49 1175.31 955.801 1164.65 951.107C1145.03 942.365 1093.03 920.89 1076.81 914.788C1073.29 913.439 1069.43 911.972 1068.32 911.503C1067.32 911.084 1060.49 908.512 1052.5 905.502L1049.58 904.403C1025.39 895.368 1024.63 895.074 982.526 878.118C971.575 873.717 959.453 868.906 955.588 867.381C947.038 864.036 918.519 852.478 890 840.802C867.512 831.59 861.891 829.478 855.566 828.128C844.498 825.781 841.804 827.307 827.984 843.735C823.768 848.723 818.204 855.001 815.686 857.7C811.411 862.159 800.988 871.253 798.411 872.72C797.825 873.072 795.659 874.363 793.609 875.536C778.149 884.513 754.783 884.278 738.679 875.008C717.012 862.452 702.606 842.151 689.312 805.422C681.524 783.713 672.798 749.272 668.406 722.869C662.199 685.788 662.082 648.296 668.113 624.005C673.97 600.066 688.2 586.337 710.16 583.286C720.408 581.819 734.697 582.758 745.589 585.574C754.022 587.686 769.833 593.436 778.617 597.543C781.136 598.717 783.361 599.656 783.478 599.656C784.356 599.656 801.515 608.398 808.015 612.153C820.02 619.018 835.421 628.933 849.593 638.79C877.878 658.622 891.757 666.719 909.618 673.76C942.763 686.902 990.314 696.407 1016.49 695.058C1038.86 693.884 1054.32 689.367 1065.62 680.742C1069.25 677.925 1074.17 671.823 1074.17 670.063C1074.17 668.244 1068.67 662.846 1062.64 658.798C1055.2 653.752 1048.7 650.584 1029.08 642.194L989.611 586.337C1004.08 594.199 1018.77 601.005 1046.36 612.681C1058.71 617.903 1069.02 622.714 1073.7 625.53C1097.25 639.612 1108.14 653.693 1108.14 669.829C1108.08 681.504 1102.81 691.948 1091.33 702.92C1085.18 708.787 1082.55 710.724 1075.58 714.655C1065.04 720.581 1050.28 725.216 1035.23 727.328C1025.68 728.678 999.098 728.854 988.382 727.68C960.155 724.512 929.06 717.178 901.712 707.145C887.306 701.864 870.382 693.298 854.922 683.382C851.935 681.446 835.597 670.474 831.732 667.775C820.898 660.206 817.97 658.211 804.677 649.762C785.645 637.558 764.856 627.467 745.238 620.895C735.283 617.551 729.544 616.436 721.931 616.436C707.759 616.436 703.367 620.191 700.263 634.859C697.745 646.77 696.457 669.828 697.569 683.558C699.326 705.56 703.25 728.854 709.399 753.672C723.16 809.06 737.625 837.047 757.184 846.2C762.162 848.547 768.604 849.133 773.288 847.549C779.906 845.378 788.866 837.516 802.159 822.026C815.218 806.83 821.191 801.549 829.565 797.677C836.183 794.685 841.512 793.629 849.593 793.629C860.661 793.746 870.382 796.21 887.716 803.31C906.924 811.23 938.898 824.197 953.538 830.065C1020.24 856.761 1049.52 868.319 1069.78 875.888C1100.47 887.388 1110.54 891.437 1140.05 903.758C1183.92 922.122 1197.56 928.459 1211.79 936.908C1228.42 946.824 1244.58 961.081 1260.45 979.857C1275.74 997.928 1283.29 1010.54 1288.45 1026.21C1298.4 1056.78 1297.7 1100.31 1286.69 1138.04C1279.72 1161.92 1270.88 1180.69 1261.39 1191.55C1243.47 1212.08 1218.82 1219.71 1166.41 1220.83C1135.6 1221.47 1118.56 1219.59 1078.27 1211.03C1051.39 1205.34 1038.8 1202.81 1009.76 1197.53C973.8 1190.96 954.768 1186.8 915.766 1177.06C902.883 1173.83 887.365 1170.02 881.216 1168.55C864.116 1164.44 830.619 1156.35 815.628 1152.65C783.654 1144.85 739.265 1135.11 719.295 1131.59C702.254 1128.53 665.888 1123.08 654.586 1121.85C647.5 1121.02 639.067 1119.26 633.738 1117.44C624.662 1114.39 608.674 1101.43 608.616 1097.03C608.616 1096.5 607.562 1093.92 606.332 1091.45C603.58 1085.94 602.408 1082.12 601.589 1075.49C601.237 1072.74 600.183 1065.64 599.246 1059.65C598.309 1053.67 596.728 1042.87 595.733 1035.6C594.737 1028.32 593.683 1020.81 593.39 1018.87C592.453 1012.77 591.106 1000.33 590.755 993.645C590.521 990.066 589.994 985.079 589.525 982.497C588.178 974.928 587.066 963.956 586.363 951.694C584.665 922.123 582.674 903.993 577.637 872.485C570.903 830.886 567.682 808.708 566.159 793.863C564.461 777.083 564.11 772.154 562.939 749.33C561.475 720.053 561.475 704.739 562.997 681.035C564.52 657.214 564.285 648.648 561.533 626.352C560.362 616.964 558.371 599.656 557.083 587.862C551.988 540.572 545.839 513.993 531.023 475.269C529.852 472.218 528.095 467.583 527.099 465.001C526.163 462.419 524.347 457.784 523.117 454.733Z" fill="#7CAE7A"/>
<path id="Vector_2" d="M558.118 454.516C556.888 451.465 553.901 443.896 551.5 437.794C546.431 424.929 542.541 415.201 539.457 407.646C537.457 400.226 542.688 391.393 549.457 388.726C554.598 386.7 568.34 388.726 571.852 397.226C574.525 403.695 576.857 409.462 576.857 409.69C576.857 409.924 589.623 442.253 593.254 451.289C594.191 453.518 596.65 460.148 598.817 465.957C614.863 509.316 620.368 534.076 626.341 589.464C627.805 603.193 629.679 619.387 630.499 625.548C632.665 641.976 632.958 661.455 631.377 686.098C629.854 709.567 629.854 715.728 631.318 744.243C633.427 784.375 635.359 800.452 645.959 866.4C651.17 898.494 652.927 915.04 655.035 950.889C655.562 959.456 656.324 970.017 656.792 974.359C657.261 978.7 658.081 988.734 658.549 996.654C659.018 1004.58 659.779 1014.2 660.247 1018.07C660.774 1021.94 661.301 1026.7 661.477 1028.63C661.653 1030.57 662.355 1035.32 662.941 1039.19C663.585 1043.06 664.639 1050.34 665.284 1055.33C666.513 1065.01 669.207 1075.8 671.315 1079.68C673.599 1083.84 680.334 1086.37 693.568 1087.95C710.785 1090 742.349 1094.81 762.611 1098.45C783.283 1102.09 824.393 1111.18 859.998 1119.87C868.079 1121.86 888.224 1126.73 904.796 1130.72C921.369 1134.71 946.023 1140.76 959.551 1144.1C998.728 1153.9 1019.69 1158.42 1059.98 1165.63C1075.38 1168.39 1093.77 1172.09 1129.96 1179.66C1168.14 1187.58 1194.32 1189.1 1228.34 1185.23C1261.9 1181.47 1271.62 1174.67 1282.69 1147.44C1300.78 1102.91 1301.49 1049.58 1284.33 1021.47C1277.77 1010.74 1262.13 991.961 1252.53 983.218C1246.09 977.41 1236.02 969.841 1229.52 965.851C1223.6 962.272 1210.31 955.583 1199.65 950.889C1180.03 942.147 1128.03 920.673 1111.81 914.571C1108.29 913.221 1104.43 911.755 1103.32 911.285C1102.32 910.866 1095.49 908.295 1087.5 905.285L1084.58 904.186C1060.39 895.15 1059.63 894.857 1017.53 877.9C1006.57 873.5 994.453 868.689 990.588 867.163C982.038 863.819 953.519 852.26 925 840.584C902.513 831.372 896.891 829.26 890.566 827.911C879.498 825.564 876.804 827.089 862.984 843.518C858.768 848.505 853.205 854.783 850.686 857.482C846.411 861.941 835.988 871.035 833.411 872.502C832.825 872.854 830.659 874.145 828.609 875.319C813.149 884.296 789.783 884.061 773.679 874.791C752.012 862.235 737.606 841.934 724.313 805.204C716.524 783.495 707.799 749.054 703.407 722.651C697.199 685.57 697.082 648.078 703.114 623.787C708.97 599.849 723.2 586.119 745.16 583.068C755.408 581.602 769.697 582.54 780.589 585.357C789.022 587.469 804.833 593.219 813.618 597.326C816.136 598.499 818.361 599.438 818.478 599.438C819.357 599.438 836.515 608.18 843.015 611.935C855.02 618.8 870.421 628.716 884.593 638.573C912.878 658.404 926.757 666.501 944.618 673.542C977.763 686.685 1025.31 696.19 1051.49 694.84C1073.86 693.667 1089.32 689.149 1100.62 680.524C1104.25 677.708 1109.17 671.606 1109.17 669.846C1109.17 668.027 1103.67 662.629 1097.64 658.58C1090.2 653.535 1083.7 650.366 1064.08 641.976L1024.61 586.119C1039.08 593.981 1053.78 600.788 1081.36 612.464C1093.71 617.685 1104.02 622.497 1108.7 625.313C1132.25 639.394 1143.14 653.476 1143.14 669.611C1143.08 681.287 1137.81 691.731 1126.33 702.703C1120.18 708.57 1117.55 710.506 1110.58 714.437C1100.04 720.363 1085.28 724.998 1070.23 727.111C1060.69 728.46 1034.1 728.636 1023.38 727.463C995.156 724.294 964.06 716.96 936.712 706.927C922.306 701.646 905.382 693.08 889.922 683.164C886.935 681.228 870.597 670.256 866.732 667.557C855.898 659.989 852.97 657.994 839.677 649.545C820.645 637.341 799.856 627.249 780.238 620.678C770.283 617.333 764.544 616.219 756.931 616.219C742.759 616.219 738.367 619.974 735.264 634.642C732.745 646.552 731.457 669.611 732.57 683.34C734.327 705.343 738.25 728.636 744.399 753.455C758.161 808.842 772.625 836.829 792.184 845.982C797.162 848.329 803.604 848.916 808.289 847.332C814.906 845.161 823.866 837.298 837.159 821.809C850.218 806.612 856.191 801.332 864.565 797.46C871.183 794.467 876.512 793.411 884.593 793.411C895.661 793.528 905.382 795.993 922.716 803.092C941.924 811.013 973.898 823.98 988.538 829.847C1055.24 856.543 1084.52 868.102 1104.78 875.671C1135.47 887.171 1145.54 891.219 1175.05 903.54C1218.92 921.905 1232.56 928.242 1246.79 936.691C1263.42 946.606 1279.58 960.864 1295.45 979.639C1310.74 997.711 1318.29 1010.33 1323.45 1025.99C1333.4 1056.56 1332.7 1100.09 1321.69 1137.82C1314.72 1161.7 1305.88 1180.48 1296.39 1191.33C1278.47 1211.87 1253.82 1219.49 1201.41 1220.61C1170.6 1221.25 1153.56 1219.38 1113.27 1210.81C1086.39 1205.12 1073.8 1202.6 1044.76 1197.32C1008.8 1190.74 989.768 1186.58 950.767 1176.84C937.883 1173.61 922.365 1169.8 916.216 1168.33C899.116 1164.22 865.619 1156.13 850.628 1152.43C818.654 1144.63 774.265 1134.89 754.296 1131.37C737.255 1128.32 700.888 1122.86 689.586 1121.63C682.5 1120.81 674.068 1119.05 668.739 1117.23C659.662 1114.18 643.675 1101.21 643.616 1096.81C643.616 1096.28 642.562 1093.7 641.332 1091.24C638.58 1085.72 637.409 1081.91 636.589 1075.28C636.237 1072.52 635.183 1065.42 634.246 1059.43C633.309 1053.45 631.728 1042.65 630.733 1035.38C629.737 1028.1 628.683 1020.59 628.39 1018.66C627.453 1012.55 626.106 1000.12 625.755 993.427C625.521 989.848 624.994 984.861 624.525 982.28C623.178 974.711 622.066 963.739 621.363 951.476C619.665 921.905 617.674 903.775 612.638 872.268C605.903 830.668 602.682 808.49 601.16 793.646C599.461 776.865 599.11 771.937 597.939 749.113C596.475 719.835 596.475 704.521 597.997 680.818C599.52 656.996 599.286 648.43 596.533 626.134C595.362 616.747 593.371 599.438 592.083 587.645C586.988 540.354 580.839 513.775 566.023 475.051C564.852 472 563.095 467.365 562.1 464.784C561.163 462.202 559.347 457.567 558.118 454.516Z" fill="#839073"/>
<path id="Vector_3" d="M585.043 436.068C575.264 411.25 569.876 398.107 566.187 389.717C562 380.238 558.889 372.995 556.485 367C553.478 359.5 557.848 349.45 564 346C568.994 343.2 584.386 345.5 587.679 353.91C590.217 360.394 593.565 368.151 598.102 378.275C600.445 383.38 610.4 407.495 610.4 407.964C610.4 408.199 623.166 440.527 626.797 449.563C627.734 451.793 630.194 458.423 632.36 464.231C648.406 507.591 653.911 532.351 659.884 587.738C661.348 601.468 663.222 617.661 664.042 623.822C666.208 640.25 666.501 659.73 664.92 684.372C663.398 707.842 663.398 714.002 664.862 742.517C666.97 782.65 668.902 798.726 679.502 864.675C684.714 896.769 686.47 913.315 688.579 949.164C689.106 957.73 689.867 968.291 690.335 972.633C690.804 976.975 691.624 987.008 692.092 994.929C692.561 1002.85 693.322 1012.47 693.791 1016.34C694.318 1020.22 694.845 1024.97 695.02 1026.91C695.196 1028.84 695.899 1033.59 696.484 1037.47C697.128 1041.34 698.183 1048.61 698.827 1053.6C700.057 1063.28 702.75 1074.08 704.859 1077.95C707.142 1082.12 713.877 1084.64 727.112 1086.22C744.328 1088.28 775.893 1093.09 796.155 1096.73C816.826 1100.36 857.936 1109.46 893.541 1118.14C901.622 1120.14 921.767 1125.01 938.34 1129C954.912 1132.99 979.566 1139.03 993.094 1142.37C1032.27 1152.17 1053.24 1156.69 1093.53 1163.91C1108.93 1166.66 1127.31 1170.36 1163.51 1177.93C1201.69 1185.85 1227.86 1187.38 1261.89 1183.5C1295.44 1179.75 1305.16 1172.94 1316.23 1145.72C1334.33 1101.19 1335.03 1047.85 1317.87 1019.75C1311.31 1009.01 1295.68 990.235 1286.07 981.493C1279.63 975.684 1269.56 968.115 1263.06 964.125C1257.14 960.546 1243.85 953.858 1233.19 949.164C1213.57 940.422 1161.57 918.947 1145.35 912.845C1141.84 911.496 1137.97 910.029 1136.86 909.56C1135.87 909.14 1129.04 906.569 1121.04 903.559L1118.12 902.46C1093.94 893.424 1093.17 893.131 1051.07 876.175C1040.12 871.774 1028 866.963 1024.13 865.437C1015.58 862.093 987.062 850.535 958.543 838.859C936.056 829.647 930.434 827.535 924.11 826.185C913.042 823.838 910.348 825.364 896.527 841.792C892.311 846.779 886.748 853.057 884.23 855.756C879.955 860.216 869.531 869.31 866.954 870.777C866.369 871.129 864.202 872.42 862.152 873.593C846.692 882.57 823.327 882.335 807.223 873.065C785.555 860.509 771.149 840.208 757.856 803.479C750.067 781.77 741.342 747.329 736.95 720.926C730.742 683.844 730.625 646.352 736.657 622.062C742.513 598.123 756.743 584.394 778.703 581.343C788.952 579.876 803.24 580.815 814.133 583.631C822.565 585.743 838.377 591.493 847.161 595.6C849.679 596.774 851.904 597.712 852.021 597.712C852.9 597.712 870.058 606.455 876.558 610.21C888.563 617.075 903.965 626.99 918.136 636.847C946.421 656.679 960.3 664.776 978.161 671.817C1011.31 684.959 1058.86 694.464 1085.03 693.115C1107.4 691.941 1122.86 687.424 1134.17 678.799C1137.8 675.982 1142.72 669.88 1142.72 668.12C1142.72 666.301 1137.21 660.903 1131.18 656.855C1123.74 651.809 1117.24 648.641 1097.62 640.25C1070.92 628.868 1054.47 621.006 1032.04 608.86L1013.24 559.81C1016.87 561.922 1019.97 563.682 1020.03 563.682C1020.15 563.682 1023.19 565.384 1026.82 567.379C1033.09 570.899 1037.31 573.187 1046.97 578.35C1049.25 579.583 1054.23 582.281 1058.15 584.394C1072.62 592.256 1087.32 599.062 1114.9 610.738C1127.26 615.96 1137.56 620.771 1142.25 623.587C1165.79 637.669 1176.68 651.75 1176.68 667.885C1176.62 679.561 1171.35 690.005 1159.87 700.977C1153.73 706.844 1151.09 708.781 1144.12 712.712C1133.58 718.638 1118.82 723.273 1103.77 725.385C1094.23 726.734 1067.64 726.91 1056.93 725.737C1028.7 722.569 997.603 715.235 970.255 705.201C955.849 699.921 938.925 691.355 923.465 681.439C920.479 679.503 904.14 668.531 900.275 665.832C889.442 658.263 886.514 656.268 873.22 647.819C854.188 635.615 833.399 625.523 813.781 618.952C803.826 615.608 798.087 614.493 790.474 614.493C776.302 614.493 771.91 618.248 768.807 632.916C766.289 644.827 765 667.885 766.113 681.615C767.87 703.617 771.793 726.91 777.942 751.729C791.704 807.116 806.168 835.104 825.728 844.257C830.705 846.603 837.147 847.19 841.832 845.606C848.449 843.435 857.409 835.573 870.702 820.083C883.761 804.887 889.734 799.606 898.109 795.734C904.726 792.742 910.055 791.685 918.136 791.685C929.204 791.803 938.925 794.267 956.259 801.367C975.467 809.287 1007.44 822.254 1022.08 828.121C1088.78 854.818 1118.06 866.376 1138.32 873.945C1169.01 885.445 1179.08 889.493 1208.6 901.815C1252.46 920.179 1266.1 926.516 1280.33 934.965C1296.97 944.881 1313.13 959.138 1329 977.914C1344.28 995.985 1351.84 1008.6 1356.99 1024.27C1366.95 1054.83 1366.24 1098.37 1355.23 1136.1C1348.26 1159.98 1339.42 1178.75 1329.93 1189.61C1312.02 1210.14 1287.36 1217.77 1234.95 1218.88C1204.15 1219.53 1187.11 1217.65 1146.82 1209.09C1119.94 1203.39 1107.35 1200.87 1078.3 1195.59C1042.34 1189.02 1023.31 1184.85 984.31 1175.11C971.427 1171.89 955.908 1168.07 949.759 1166.61C932.659 1162.5 899.163 1154.4 884.171 1150.71C852.197 1142.9 807.808 1133.16 787.839 1129.64C770.798 1126.59 734.432 1121.13 723.129 1119.9C716.044 1119.08 707.611 1117.32 702.282 1115.5C693.205 1112.45 677.218 1099.48 677.159 1095.08C677.159 1094.56 676.105 1091.97 674.875 1089.51C672.123 1083.99 670.952 1080.18 670.132 1073.55C669.781 1070.79 668.727 1063.69 667.79 1057.71C666.853 1051.72 665.272 1040.93 664.276 1033.65C663.28 1026.38 662.226 1018.87 661.934 1016.93C660.997 1010.83 659.65 998.391 659.298 991.702C659.064 988.123 658.537 983.136 658.069 980.554C656.722 972.985 655.609 962.013 654.906 949.751C653.208 920.179 651.217 902.049 646.181 870.542C639.446 828.943 636.225 806.764 634.703 791.92C633.005 775.14 632.653 770.211 631.482 747.387C630.018 718.11 630.018 702.796 631.541 679.092C633.063 655.271 632.829 646.704 630.077 624.409C628.905 615.021 626.914 597.712 625.626 585.919C620.531 538.629 614.382 512.05 599.566 473.326C598.395 470.275 596.638 465.64 595.643 463.058C594.706 460.476 592.891 455.841 591.661 452.79C590.431 449.739 587.444 442.17 585.043 436.068Z" fill="#6E6362"/>
<text id="Year" fill="white" xml:space="preserve" style="white-space: pre" font-family="SF Pro Display" font-size="50" font-weight="600" letter-spacing="0em"><tspan x="67.0996" y="329.481">2016</tspan></text>
<text id="Circuit-Name" fill="white" fill-opacity="0.6" xml:space="preserve" style="white-space: pre" font-family="SF Pro Display" font-size="30" font-weight="600" letter-spacing="0em"><tspan x="67" y="366.664">Red Bull Ring</tspan></text>
<text id="Driver" fill="white" xml:space="preserve" style="white-space: pre" font-family="SF Pro Display" font-size="30" font-weight="bold" letter-spacing="0em"><tspan x="67" y="180.664">Lewis Hamilton</tspan></text>
<text id="Time" fill="white" fill-opacity="0.4" xml:space="preserve" style="white-space: pre" font-family="SF Pro Display" font-size="40" font-weight="800" letter-spacing="0em"><tspan x="67" y="141.219">1:08.411</tspan></text>
<path id="Vector_4" d="M598.187 389.717C587.353 365.191 583.723 355.628 580.912 343.952C579.537 338.316 578.231 332.873 577.415 327.436C577.507 320.898 579.009 311.162 587 308C591.586 306.185 598.232 304.525 608.174 312L615 329.5C617.401 343.64 620.878 351.952 633 379C635.342 384.105 644.5 407.964 642.4 407.964C642.4 408.199 655.167 440.527 658.797 449.563C659.734 451.793 662.194 458.423 664.361 464.231C680.406 507.591 685.911 532.351 691.884 587.738C693.348 601.468 695.222 617.661 696.042 623.822C698.209 640.25 698.501 659.73 696.92 684.372C695.398 707.842 695.398 714.002 696.862 742.517C698.97 782.65 700.902 798.726 711.502 864.675C716.714 896.769 718.471 913.315 720.579 949.164C721.106 957.73 721.867 968.291 722.336 972.633C722.804 976.975 723.624 987.008 724.092 994.929C724.561 1002.85 725.322 1012.47 725.791 1016.34C726.318 1020.22 726.845 1024.97 727.021 1026.91C727.196 1028.84 727.899 1033.59 728.485 1037.47C729.129 1041.34 730.183 1048.61 730.827 1053.6C732.057 1063.28 734.751 1074.08 736.859 1077.95C739.143 1082.12 745.877 1084.64 759.112 1086.22C776.329 1088.28 807.893 1093.09 828.155 1096.73C848.827 1100.36 889.936 1109.46 925.541 1118.14C933.622 1120.14 953.767 1125.01 970.34 1129C986.912 1132.99 1011.57 1139.03 1025.09 1142.37C1064.27 1152.17 1085.24 1156.69 1125.53 1163.91C1140.93 1166.66 1159.31 1170.36 1195.51 1177.93C1233.69 1185.85 1259.86 1187.38 1293.89 1183.5C1327.44 1179.75 1337.16 1172.94 1348.23 1145.72C1366.33 1101.19 1367.03 1047.85 1349.87 1019.75C1343.31 1009.01 1327.68 990.235 1318.07 981.493C1311.63 975.684 1301.56 968.115 1295.06 964.125C1289.14 960.546 1275.85 953.858 1265.19 949.164C1245.57 940.422 1193.57 918.947 1177.35 912.845C1173.84 911.496 1169.97 910.029 1168.86 909.56C1167.87 909.14 1161.04 906.569 1153.04 903.559L1150.12 902.46C1125.94 893.424 1125.17 893.131 1083.07 876.175C1072.12 871.774 1060 866.963 1056.13 865.437C1047.58 862.093 1019.06 850.535 990.543 838.859C968.056 829.647 962.434 827.535 956.11 826.185C945.042 823.838 942.348 825.364 928.527 841.792C924.311 846.779 918.748 853.057 916.23 855.756C911.955 860.216 901.531 869.31 898.954 870.777C898.369 871.129 896.202 872.42 894.152 873.593C878.692 882.57 855.327 882.335 839.223 873.065C817.555 860.509 803.149 840.208 789.856 803.479C782.068 781.77 773.342 747.329 768.95 720.926C762.743 683.844 762.625 646.352 768.657 622.062C774.513 598.123 788.743 584.394 810.704 581.343C820.952 579.876 835.24 580.815 846.133 583.631C854.565 585.743 870.377 591.493 879.161 595.6C881.679 596.774 883.904 597.712 884.021 597.712C884.9 597.712 902.058 606.455 908.558 610.21C920.563 617.075 935.965 626.99 950.136 636.847C978.421 656.679 992.3 664.776 1010.16 671.817C1043.31 684.959 1090.86 694.464 1117.03 693.115C1139.4 691.941 1154.86 687.424 1166.17 678.799C1169.8 675.982 1174.72 669.88 1174.72 668.12C1174.72 666.301 1169.21 660.903 1163.18 656.855C1155.74 651.809 1149.24 648.641 1129.62 640.25C1102.92 628.868 1086.47 621.006 1064.04 608.86L1036.81 554.881C1037.8 555.468 1041.55 557.639 1045.24 559.81C1048.87 561.922 1051.97 563.682 1052.03 563.682C1052.15 563.682 1055.19 565.384 1058.82 567.379C1065.09 570.899 1069.31 573.187 1078.97 578.35C1081.25 579.583 1086.23 582.281 1090.15 584.394C1104.62 592.256 1119.32 599.062 1146.9 610.738C1159.26 615.96 1169.56 620.771 1174.25 623.587C1197.79 637.669 1208.68 651.75 1208.68 667.885C1208.62 679.561 1203.35 690.005 1191.87 700.977C1185.73 706.844 1183.09 708.781 1176.12 712.712C1165.58 718.638 1150.82 723.273 1135.77 725.385C1126.23 726.734 1099.64 726.91 1088.93 725.737C1060.7 722.569 1029.6 715.235 1002.26 705.201C987.849 699.921 970.925 691.355 955.465 681.439C952.479 679.503 936.14 668.531 932.275 665.832C921.442 658.263 918.514 656.268 905.22 647.819C886.188 635.615 865.399 625.523 845.781 618.952C835.826 615.608 830.087 614.493 822.474 614.493C808.303 614.493 803.911 618.248 800.807 632.916C798.289 644.827 797 667.885 798.113 681.615C799.87 703.617 803.794 726.91 809.942 751.729C823.704 807.116 838.168 835.104 857.728 844.257C862.705 846.603 869.147 847.19 873.832 845.606C880.449 843.435 889.409 835.573 902.702 820.083C915.761 804.887 921.734 799.606 930.109 795.734C936.726 792.742 942.055 791.685 950.136 791.685C961.204 791.803 970.925 794.267 988.259 801.367C1007.47 809.287 1039.44 822.254 1054.08 828.121C1120.78 854.818 1150.06 866.376 1170.32 873.945C1201.01 885.445 1211.08 889.493 1240.6 901.815C1284.46 920.179 1298.1 926.516 1312.33 934.965C1328.97 944.881 1345.13 959.138 1361 977.914C1376.28 995.985 1383.84 1008.6 1388.99 1024.27C1398.95 1054.83 1398.24 1098.37 1387.23 1136.1C1380.26 1159.98 1371.42 1178.75 1361.93 1189.61C1344.02 1210.14 1319.36 1217.77 1266.95 1218.88C1236.15 1219.53 1219.11 1217.65 1178.82 1209.09C1151.94 1203.39 1139.35 1200.87 1110.3 1195.59C1074.34 1189.02 1055.31 1184.85 1016.31 1175.11C1003.43 1171.89 987.908 1168.07 981.759 1166.61C964.659 1162.5 931.163 1154.4 916.171 1150.71C884.197 1142.9 839.808 1133.16 819.839 1129.64C802.798 1126.59 766.432 1121.13 755.13 1119.9C748.044 1119.08 739.611 1117.32 734.282 1115.5C725.205 1112.45 709.218 1099.48 709.16 1095.08C709.16 1094.56 708.105 1091.97 706.876 1089.51C704.123 1083.99 702.952 1080.18 702.132 1073.55C701.781 1070.79 700.727 1063.69 699.79 1057.71C698.853 1051.72 697.272 1040.93 696.276 1033.65C695.281 1026.38 694.226 1018.87 693.934 1016.93C692.997 1010.83 691.65 998.391 691.298 991.702C691.064 988.123 690.537 983.136 690.069 980.554C688.722 972.985 687.609 962.013 686.906 949.751C685.208 920.179 683.217 902.049 678.181 870.542C671.446 828.943 668.226 806.764 666.703 791.92C665.005 775.14 664.653 770.211 663.482 747.387C662.018 718.11 662.018 702.796 663.541 679.092C665.063 655.271 664.829 646.704 662.077 624.409C660.905 615.021 658.914 597.712 657.626 585.919C652.531 538.629 646.382 512.05 631.567 473.326C630.395 470.275 628.639 465.64 627.643 463.058C626.706 460.476 624.891 455.841 623.661 452.79C622.431 449.739 619.445 442.17 617.044 436.068C607.264 411.25 601.876 398.107 598.187 389.717Z" fill="#4E4A59"/>
<path id="Vector_5" d="M632.186 389.44C621.353 364.915 617.722 355.351 614.911 343.675L598.5 290.5C596.5 282 602.122 273.326 610 271C616.485 269.085 625.781 273.437 632.186 284.5L664.102 377.999C666.444 383.104 676.4 407.218 676.4 407.688C676.4 407.922 689.166 440.251 692.797 449.287C693.734 451.516 696.193 458.146 698.36 463.955C714.406 507.314 719.91 532.074 725.883 587.462C727.347 601.191 729.221 617.385 730.041 623.546C732.208 639.974 732.501 659.453 730.92 684.096C729.397 707.565 729.397 713.726 730.861 742.241C732.969 782.373 734.902 798.45 745.501 864.398C750.713 896.492 752.47 913.038 754.578 948.888C755.105 957.454 755.867 968.015 756.335 972.357C756.804 976.699 757.623 986.732 758.092 994.652C758.56 1002.57 759.322 1012.2 759.79 1016.07C760.317 1019.94 760.844 1024.69 761.02 1026.63C761.196 1028.57 761.898 1033.32 762.484 1037.19C763.128 1041.06 764.182 1048.34 764.826 1053.33C766.056 1063.01 768.75 1073.8 770.858 1077.67C773.142 1081.84 779.876 1084.36 793.111 1085.95C810.328 1088 841.892 1092.81 862.154 1096.45C882.826 1100.09 923.936 1109.18 959.54 1117.87C967.622 1119.86 987.767 1124.73 1004.34 1128.72C1020.91 1132.71 1045.57 1138.75 1059.09 1142.1C1098.27 1151.9 1119.24 1156.41 1159.53 1163.63C1174.93 1166.39 1193.31 1170.08 1229.51 1177.65C1267.69 1185.57 1293.86 1187.1 1327.89 1183.23C1361.44 1179.47 1371.16 1172.67 1382.23 1145.44C1400.33 1100.91 1401.03 1047.58 1383.87 1019.47C1377.31 1008.73 1361.68 989.959 1352.07 981.216C1345.63 975.408 1335.56 967.839 1329.06 963.849C1323.14 960.27 1309.85 953.581 1299.19 948.888C1279.57 940.145 1227.57 918.671 1211.35 912.569C1207.84 911.219 1203.97 909.753 1202.86 909.283C1201.87 908.864 1195.04 906.293 1187.04 903.283L1184.12 902.184C1159.93 893.148 1159.17 892.855 1117.07 875.898C1106.12 871.498 1094 866.687 1090.13 865.161C1081.58 861.817 1053.06 850.258 1024.54 838.582C1002.06 829.371 996.434 827.258 990.109 825.909C979.041 823.562 976.347 825.087 962.527 841.516C958.311 846.503 952.747 852.781 950.229 855.48C945.954 859.939 935.531 869.034 932.954 870.5C932.368 870.852 930.202 872.143 928.152 873.317C912.692 882.294 889.326 882.059 873.222 872.789C851.555 860.233 837.149 839.932 823.855 803.202C816.067 781.493 807.341 747.052 802.949 720.649C796.742 683.568 796.625 646.076 802.656 621.785C808.513 597.847 822.743 584.117 844.703 581.066C854.951 579.6 869.24 580.538 880.132 583.355C888.565 585.467 904.376 591.217 913.16 595.324C915.679 596.497 917.904 597.436 918.021 597.436C918.899 597.436 936.058 606.178 942.558 609.933C954.563 616.798 969.964 626.714 984.136 636.571C1012.42 656.402 1026.3 664.499 1044.16 671.54C1077.31 684.683 1124.86 694.188 1151.03 692.838C1173.4 691.665 1188.86 687.147 1200.17 678.522C1203.8 675.706 1208.72 669.604 1208.72 667.844C1208.72 666.025 1203.21 660.627 1197.18 656.578C1189.74 651.533 1183.24 648.364 1163.62 639.974L1124.15 584.117C1138.62 591.979 1153.32 598.786 1180.9 610.462C1193.26 615.683 1203.56 620.495 1208.25 623.311C1231.79 637.392 1242.68 651.474 1242.68 667.609C1242.62 679.285 1237.35 689.729 1225.87 700.701C1219.73 706.568 1217.09 708.504 1210.12 712.435C1199.58 718.361 1184.82 722.996 1169.77 725.109C1160.23 726.458 1133.64 726.634 1122.92 725.461C1094.7 722.292 1063.6 714.958 1036.25 704.925C1021.85 699.645 1004.92 691.078 989.465 681.163C986.478 679.226 970.14 668.254 966.275 665.555C955.441 657.987 952.513 655.992 939.22 647.543C920.188 635.339 899.399 625.247 879.781 618.676C869.826 615.331 864.087 614.217 856.474 614.217C842.302 614.217 837.91 617.972 834.806 632.64C832.288 644.551 831 667.609 832.112 681.339C833.869 703.341 837.793 726.634 843.942 751.453C857.703 806.84 872.168 834.827 891.727 843.98C896.705 846.327 903.147 846.914 907.831 845.33C914.449 843.159 923.409 835.297 936.702 819.807C949.761 804.611 955.734 799.33 964.108 795.458C970.726 792.465 976.055 791.409 984.136 791.409C995.204 791.526 1004.92 793.991 1022.26 801.09C1041.47 809.011 1073.44 821.978 1088.08 827.845C1154.78 854.541 1184.06 866.1 1204.32 873.669C1235.01 885.169 1245.08 889.217 1274.6 901.538C1318.46 919.903 1332.1 926.24 1346.33 934.689C1362.96 944.604 1379.13 958.862 1395 977.637C1410.28 995.709 1417.84 1008.32 1422.99 1023.99C1432.94 1054.56 1432.24 1098.09 1421.23 1135.82C1414.26 1159.7 1405.42 1178.48 1395.93 1189.33C1378.01 1209.87 1353.36 1217.49 1300.95 1218.61C1270.15 1219.25 1253.1 1217.38 1212.82 1208.81C1185.94 1203.12 1173.35 1200.59 1144.3 1195.31C1108.34 1188.74 1089.31 1184.58 1050.31 1174.84C1037.43 1171.61 1021.91 1167.8 1015.76 1166.33C998.659 1162.22 965.162 1154.13 950.171 1150.43C918.197 1142.63 873.808 1132.89 853.838 1129.37C836.797 1126.31 800.431 1120.86 789.129 1119.63C782.043 1118.8 773.61 1117.04 768.281 1115.23C759.204 1112.17 743.217 1099.21 743.159 1094.81C743.159 1094.28 742.105 1091.7 740.875 1089.23C738.123 1083.72 736.951 1079.9 736.132 1073.27C735.78 1070.52 734.726 1063.42 733.789 1057.43C732.852 1051.45 731.271 1040.65 730.276 1033.38C729.28 1026.1 728.226 1018.59 727.933 1016.65C726.996 1010.55 725.649 998.114 725.298 991.425C725.064 987.846 724.537 982.859 724.068 980.278C722.721 972.709 721.609 961.737 720.906 949.474C719.208 919.903 717.216 901.773 712.18 870.266C705.446 828.666 702.225 806.488 700.702 791.644C699.004 774.863 698.653 769.935 697.482 747.111C696.018 717.833 696.018 702.52 697.54 678.816C699.063 654.994 698.828 646.428 696.076 624.132C694.905 614.745 692.914 597.436 691.625 585.643C686.531 538.352 680.382 511.773 665.566 473.049C664.395 469.998 662.638 465.363 661.642 462.782C660.705 460.2 658.89 455.565 657.66 452.514C656.431 449.463 653.444 441.894 651.043 435.792C641.263 410.973 635.876 397.831 632.186 389.44Z" fill="#394053"/>
<text id="Fifth-Time" transform="translate(579.727 266.446) rotate(-111.79)" fill="white" xml:space="preserve" style="white-space: pre" font-family="SF Pro Display" font-size="20" letter-spacing="0em"><tspan x="0" y="28.1094">1:08.411</tspan></text>
<text id="Fifth-Time_2" transform="translate(558.583 306.089) rotate(-111.79)" fill="white" xml:space="preserve" style="white-space: pre" font-family="SF Pro Display" font-size="20" letter-spacing="0em"><tspan x="0" y="28.1094">1:08.442</tspan></text>
<text id="Fifth-Time_3" transform="translate(540.727 345.446) rotate(-111.79)" fill="white" xml:space="preserve" style="white-space: pre" font-family="SF Pro Display" font-size="20" letter-spacing="0em"><tspan x="0" y="28.1094">1:08.491</tspan></text>
<text id="Fifth-Time_4" transform="translate(524.583 384.089) rotate(-111.79)" fill="white" xml:space="preserve" style="white-space: pre" font-family="SF Pro Display" font-size="20" letter-spacing="0em"><tspan x="0" y="28.1094">1:08.524</tspan></text>
<text id="Fifth-Time_5" transform="translate(502.954 417.018) rotate(-111.79)" fill="white" xml:space="preserve" style="white-space: pre" font-family="SF Pro Display" font-size="20" letter-spacing="0em"><tspan x="0" y="28.1094">1:08.598</tspan></text>
</g>
<defs>
<clipPath id="clip0_242_327">
<rect width="1000" height="1000" fill="white"/>
</clipPath>
</defs>
</svg>
