<svg width="1000" height="800" viewBox="0 0 1000 1000" fill="none" xmlns="http://www.w3.org/2000/svg">
<g id="Frame 7" clip-path="url(#clip0_241_5)">
<path id="Vector 32" d="M327 -109L518 442L618 431L631 285L496 -145L327 -109Z" fill="#303030" stroke="black"/>
<path id="Vector" d="M525.117 454.239C523.888 451.188 521.358 444.828 518.957 438.726C515.022 428.726 524.177 419.786 529.1 418.226C536.415 415.907 547.66 419.226 551.015 427.726C554.577 436.753 558.491 446.627 560.254 451.012C561.191 453.242 563.65 459.872 565.817 465.681C581.863 509.04 587.367 533.8 593.341 589.187C594.805 602.917 596.678 619.111 597.498 625.271C599.665 641.7 599.958 661.179 598.377 685.822C596.854 709.291 596.854 715.452 598.318 743.967C600.426 784.099 602.359 800.175 612.958 866.124C618.17 898.218 619.927 914.764 622.035 950.613C622.562 959.179 623.324 969.74 623.792 974.082C624.261 978.424 625.08 988.457 625.549 996.378C626.017 1004.3 626.779 1013.92 627.247 1017.79C627.774 1021.67 628.301 1026.42 628.477 1028.35C628.653 1030.29 629.355 1035.04 629.941 1038.92C630.585 1042.79 631.639 1050.06 632.283 1055.05C633.513 1064.73 636.207 1075.53 638.315 1079.4C640.599 1083.57 647.333 1086.09 660.568 1087.67C677.785 1089.73 709.349 1094.54 729.611 1098.18C750.283 1101.81 791.393 1110.91 826.997 1119.59C835.079 1121.59 855.224 1126.46 871.796 1130.45C888.369 1134.44 913.023 1140.48 926.551 1143.82C965.728 1153.62 986.692 1158.14 1026.98 1165.36C1042.38 1168.11 1060.77 1171.81 1096.96 1179.38C1135.14 1187.3 1161.32 1188.83 1195.34 1184.95C1228.9 1181.2 1238.62 1174.39 1249.69 1147.17C1267.78 1102.63 1268.49 1049.3 1251.33 1021.2C1244.77 1010.46 1229.13 991.684 1219.53 982.942C1213.09 977.133 1203.02 969.564 1196.52 965.575C1190.6 961.996 1177.31 955.307 1166.65 950.613C1147.03 941.871 1095.03 920.396 1078.81 914.294C1075.29 912.945 1071.43 911.478 1070.32 911.009C1069.32 910.59 1062.49 908.019 1054.5 905.008L1051.58 903.909C1027.39 894.874 1026.63 894.58 984.526 877.624C973.575 873.223 961.453 868.412 957.588 866.887C949.038 863.542 920.519 851.984 892 840.308C869.512 831.096 863.891 828.984 857.566 827.634C846.498 825.288 843.804 826.813 829.984 843.241C825.768 848.229 820.204 854.507 817.686 857.206C813.411 861.665 802.988 870.759 800.411 872.226C799.825 872.578 797.659 873.869 795.609 875.042C780.149 884.019 756.783 883.785 740.679 874.514C719.012 861.958 704.606 841.657 691.312 804.928C683.524 783.219 674.798 748.778 670.406 722.375C664.199 685.294 664.082 647.802 670.113 623.511C675.97 599.572 690.2 585.843 712.16 582.792C722.408 581.325 736.697 582.264 747.589 585.08C756.022 587.192 771.833 592.942 780.617 597.049C783.136 598.223 785.361 599.162 785.478 599.162C786.356 599.162 803.515 607.904 810.015 611.659C822.02 618.524 837.421 628.44 851.593 638.297C879.878 658.128 893.757 666.225 911.618 673.266C944.763 686.409 992.314 695.914 1018.49 694.564C1040.86 693.391 1056.32 688.873 1067.62 680.248C1071.25 677.432 1076.17 671.33 1076.17 669.569C1076.17 667.75 1070.67 662.353 1064.64 658.304C1057.2 653.258 1050.7 650.09 1031.08 641.7L991.611 585.843C1006.08 593.705 1020.77 600.511 1048.36 612.187C1060.71 617.409 1071.02 622.22 1075.7 625.036C1099.25 639.118 1110.14 653.2 1110.14 669.335C1110.08 681.011 1104.81 691.454 1093.33 702.426C1087.18 708.294 1084.55 710.23 1077.58 714.161C1067.04 720.087 1052.28 724.722 1037.23 726.834C1027.68 728.184 1001.1 728.36 990.382 727.186C962.155 724.018 931.06 716.684 903.712 706.651C889.306 701.37 872.382 692.804 856.922 682.888C853.935 680.952 837.597 669.98 833.732 667.281C822.898 659.712 819.97 657.717 806.677 649.268C787.645 637.064 766.856 626.973 747.238 620.401C737.283 617.057 731.544 615.942 723.931 615.942C709.759 615.942 705.367 619.697 702.263 634.365C699.745 646.276 698.457 669.335 699.569 683.064C701.326 705.066 705.25 728.36 711.399 753.178C725.16 808.566 739.625 836.553 759.184 845.706C764.162 848.053 770.604 848.639 775.288 847.055C781.906 844.884 790.866 837.022 804.159 821.532C817.218 806.336 823.191 801.056 831.565 797.183C838.183 794.191 843.512 793.135 851.593 793.135C862.661 793.252 872.382 795.716 889.716 802.816C908.924 810.737 940.898 823.703 955.538 829.571C1022.24 856.267 1051.52 867.825 1071.78 875.394C1102.47 886.894 1112.54 890.943 1142.05 903.264C1185.92 921.629 1199.56 927.965 1213.79 936.414C1230.42 946.33 1246.58 960.587 1262.45 979.363C1277.74 997.434 1285.29 1010.05 1290.45 1025.71C1300.4 1056.28 1299.7 1099.82 1288.69 1137.55C1281.72 1161.43 1272.88 1180.2 1263.39 1191.06C1245.47 1211.59 1220.82 1219.22 1168.41 1220.33C1137.6 1220.98 1120.56 1219.1 1080.27 1210.53C1053.39 1204.84 1040.8 1202.32 1011.76 1197.04C975.8 1190.47 956.768 1186.3 917.766 1176.56C904.883 1173.34 889.365 1169.52 883.216 1168.06C866.116 1163.95 832.619 1155.85 817.628 1152.15C785.654 1144.35 741.265 1134.61 721.295 1131.09C704.254 1128.04 667.888 1122.58 656.586 1121.35C649.5 1120.53 641.067 1118.77 635.738 1116.95C626.662 1113.9 610.674 1100.93 610.616 1096.53C610.616 1096 609.562 1093.42 608.332 1090.96C605.58 1085.44 604.408 1081.63 603.589 1075C603.237 1072.24 602.183 1065.14 601.246 1059.16C600.309 1053.17 598.728 1042.38 597.733 1035.1C596.737 1027.83 595.683 1020.32 595.39 1018.38C594.453 1012.28 593.106 999.84 592.755 993.151C592.521 989.572 591.994 984.585 591.525 982.003C590.178 974.434 589.066 963.462 588.363 951.2C586.665 921.629 584.674 903.499 579.637 871.991C572.903 830.392 569.682 808.214 568.159 793.369C566.461 776.589 566.11 771.66 564.939 748.837C563.475 719.559 563.475 704.245 564.997 680.541C566.52 656.72 566.285 648.154 563.533 625.858C562.362 616.47 560.371 599.162 559.083 587.368C553.988 540.078 547.839 513.499 533.023 474.775C531.852 471.724 530.095 467.089 529.099 464.507C528.163 461.926 526.347 457.29 525.117 454.239Z" fill="#EDEEC9"/>
<path id="Vector_2" d="M558.118 454.516C556.888 451.465 553.901 443.896 551.5 437.794C546.431 424.929 542.541 415.201 539.457 407.646C537.457 400.226 542.688 391.393 549.457 388.726C554.598 386.7 568.34 388.726 571.852 397.226C574.525 403.695 576.857 409.462 576.857 409.69C576.857 409.924 589.623 442.253 593.254 451.289C594.191 453.518 596.65 460.148 598.817 465.957C614.863 509.316 620.368 534.076 626.341 589.464C627.805 603.193 629.679 619.387 630.499 625.548C632.665 641.976 632.958 661.455 631.377 686.098C629.854 709.567 629.854 715.728 631.318 744.243C633.427 784.375 635.359 800.452 645.959 866.4C651.17 898.494 652.927 915.04 655.035 950.889C655.562 959.456 656.324 970.017 656.792 974.359C657.261 978.7 658.081 988.734 658.549 996.654C659.018 1004.58 659.779 1014.2 660.247 1018.07C660.774 1021.94 661.301 1026.7 661.477 1028.63C661.653 1030.57 662.355 1035.32 662.941 1039.19C663.585 1043.06 664.639 1050.34 665.284 1055.33C666.513 1065.01 669.207 1075.8 671.315 1079.68C673.599 1083.84 680.334 1086.37 693.568 1087.95C710.785 1090 742.349 1094.81 762.611 1098.45C783.283 1102.09 824.393 1111.18 859.998 1119.87C868.079 1121.86 888.224 1126.73 904.796 1130.72C921.369 1134.71 946.023 1140.76 959.551 1144.1C998.728 1153.9 1019.69 1158.42 1059.98 1165.63C1075.38 1168.39 1093.77 1172.09 1129.96 1179.66C1168.14 1187.58 1194.32 1189.1 1228.34 1185.23C1261.9 1181.47 1271.62 1174.67 1282.69 1147.44C1300.78 1102.91 1301.49 1049.58 1284.33 1021.47C1277.77 1010.74 1262.13 991.961 1252.53 983.218C1246.09 977.41 1236.02 969.841 1229.52 965.851C1223.6 962.272 1210.31 955.583 1199.65 950.889C1180.03 942.147 1128.03 920.673 1111.81 914.571C1108.29 913.221 1104.43 911.755 1103.32 911.285C1102.32 910.866 1095.49 908.295 1087.5 905.285L1084.58 904.186C1060.39 895.15 1059.63 894.857 1017.53 877.9C1006.57 873.5 994.453 868.689 990.588 867.163C982.038 863.819 953.519 852.26 925 840.584C902.513 831.372 896.891 829.26 890.566 827.911C879.498 825.564 876.804 827.089 862.984 843.518C858.768 848.505 853.205 854.783 850.686 857.482C846.411 861.941 835.988 871.035 833.411 872.502C832.825 872.854 830.659 874.145 828.609 875.319C813.149 884.296 789.783 884.061 773.679 874.791C752.012 862.235 737.606 841.934 724.313 805.204C716.524 783.495 707.799 749.054 703.407 722.651C697.199 685.57 697.082 648.078 703.114 623.787C708.97 599.849 723.2 586.119 745.16 583.068C755.408 581.602 769.697 582.54 780.589 585.357C789.022 587.469 804.833 593.219 813.618 597.326C816.136 598.499 818.361 599.438 818.478 599.438C819.357 599.438 836.515 608.18 843.015 611.935C855.02 618.8 870.421 628.716 884.593 638.573C912.878 658.404 926.757 666.501 944.618 673.542C977.763 686.685 1025.31 696.19 1051.49 694.84C1073.86 693.667 1089.32 689.149 1100.62 680.524C1104.25 677.708 1109.17 671.606 1109.17 669.846C1109.17 668.027 1103.67 662.629 1097.64 658.58C1090.2 653.535 1083.7 650.366 1064.08 641.976L1024.61 586.119C1039.08 593.981 1053.78 600.788 1081.36 612.464C1093.71 617.685 1104.02 622.497 1108.7 625.313C1132.25 639.394 1143.14 653.476 1143.14 669.611C1143.08 681.287 1137.81 691.731 1126.33 702.703C1120.18 708.57 1117.55 710.506 1110.58 714.437C1100.04 720.363 1085.28 724.998 1070.23 727.111C1060.69 728.46 1034.1 728.636 1023.38 727.463C995.156 724.294 964.06 716.96 936.712 706.927C922.306 701.646 905.382 693.08 889.922 683.164C886.935 681.228 870.597 670.256 866.732 667.557C855.898 659.989 852.97 657.994 839.677 649.545C820.645 637.341 799.856 627.249 780.238 620.678C770.283 617.333 764.544 616.219 756.931 616.219C742.759 616.219 738.367 619.974 735.264 634.642C732.745 646.552 731.457 669.611 732.57 683.34C734.327 705.343 738.25 728.636 744.399 753.455C758.161 808.842 772.625 836.829 792.184 845.982C797.162 848.329 803.604 848.916 808.289 847.332C814.906 845.161 823.866 837.298 837.159 821.809C850.218 806.612 856.191 801.332 864.565 797.46C871.183 794.467 876.512 793.411 884.593 793.411C895.661 793.528 905.382 795.993 922.716 803.092C941.924 811.013 973.898 823.98 988.538 829.847C1055.24 856.543 1084.52 868.102 1104.78 875.671C1135.47 887.171 1145.54 891.219 1175.05 903.54C1218.92 921.905 1232.56 928.242 1246.79 936.691C1263.42 946.606 1279.58 960.864 1295.45 979.639C1310.74 997.711 1318.29 1010.33 1323.45 1025.99C1333.4 1056.56 1332.7 1100.09 1321.69 1137.82C1314.72 1161.7 1305.88 1180.48 1296.39 1191.33C1278.47 1211.87 1253.82 1219.49 1201.41 1220.61C1170.6 1221.25 1153.56 1219.38 1113.27 1210.81C1086.39 1205.12 1073.8 1202.6 1044.76 1197.32C1008.8 1190.74 989.768 1186.58 950.767 1176.84C937.883 1173.61 922.365 1169.8 916.216 1168.33C899.116 1164.22 865.619 1156.13 850.628 1152.43C818.654 1144.63 774.265 1134.89 754.296 1131.37C737.255 1128.32 700.888 1122.86 689.586 1121.63C682.5 1120.81 674.068 1119.05 668.739 1117.23C659.662 1114.18 643.675 1101.21 643.616 1096.81C643.616 1096.28 642.562 1093.7 641.332 1091.24C638.58 1085.72 637.409 1081.91 636.589 1075.28C636.237 1072.52 635.183 1065.42 634.246 1059.43C633.309 1053.45 631.728 1042.65 630.733 1035.38C629.737 1028.1 628.683 1020.59 628.39 1018.66C627.453 1012.55 626.106 1000.12 625.755 993.427C625.521 989.848 624.994 984.861 624.525 982.28C623.178 974.711 622.066 963.739 621.363 951.476C619.665 921.905 617.674 903.775 612.638 872.268C605.903 830.668 602.682 808.49 601.16 793.646C599.461 776.865 599.11 771.937 597.939 749.113C596.475 719.835 596.475 704.521 597.997 680.818C599.52 656.996 599.286 648.43 596.533 626.134C595.362 616.747 593.371 599.438 592.083 587.645C586.988 540.354 580.839 513.775 566.023 475.051C564.852 472 563.095 467.365 562.1 464.784C561.163 462.202 559.347 457.567 558.118 454.516Z" fill="#DDE7C7"/>
<path id="Vector_3" d="M585.043 436.068C575.264 411.25 569.876 398.107 566.187 389.717C562 380.238 558.889 372.995 556.485 367C553.478 359.5 557.848 349.45 564 346C568.994 343.2 584.386 345.5 587.679 353.91C590.217 360.394 593.565 368.151 598.102 378.275C600.445 383.38 610.4 407.495 610.4 407.964C610.4 408.199 623.166 440.527 626.797 449.563C627.734 451.793 630.194 458.423 632.36 464.231C648.406 507.591 653.911 532.351 659.884 587.738C661.348 601.468 663.222 617.661 664.042 623.822C666.208 640.25 666.501 659.73 664.92 684.372C663.398 707.842 663.398 714.002 664.862 742.517C666.97 782.65 668.902 798.726 679.502 864.675C684.714 896.769 686.47 913.315 688.579 949.164C689.106 957.73 689.867 968.291 690.335 972.633C690.804 976.975 691.624 987.008 692.092 994.929C692.561 1002.85 693.322 1012.47 693.791 1016.34C694.318 1020.22 694.845 1024.97 695.02 1026.91C695.196 1028.84 695.899 1033.59 696.484 1037.47C697.128 1041.34 698.183 1048.61 698.827 1053.6C700.057 1063.28 702.75 1074.08 704.859 1077.95C707.142 1082.12 713.877 1084.64 727.112 1086.22C744.328 1088.28 775.893 1093.09 796.155 1096.73C816.826 1100.36 857.936 1109.46 893.541 1118.14C901.622 1120.14 921.767 1125.01 938.34 1129C954.912 1132.99 979.566 1139.03 993.094 1142.37C1032.27 1152.17 1053.24 1156.69 1093.53 1163.91C1108.93 1166.66 1127.31 1170.36 1163.51 1177.93C1201.69 1185.85 1227.86 1187.38 1261.89 1183.5C1295.44 1179.75 1305.16 1172.94 1316.23 1145.72C1334.33 1101.19 1335.03 1047.85 1317.87 1019.75C1311.31 1009.01 1295.68 990.235 1286.07 981.493C1279.63 975.684 1269.56 968.115 1263.06 964.125C1257.14 960.546 1243.85 953.858 1233.19 949.164C1213.57 940.422 1161.57 918.947 1145.35 912.845C1141.84 911.496 1137.97 910.029 1136.86 909.56C1135.87 909.14 1129.04 906.569 1121.04 903.559L1118.12 902.46C1093.94 893.424 1093.17 893.131 1051.07 876.175C1040.12 871.774 1028 866.963 1024.13 865.437C1015.58 862.093 987.062 850.535 958.543 838.859C936.056 829.647 930.434 827.535 924.11 826.185C913.042 823.838 910.348 825.364 896.527 841.792C892.311 846.779 886.748 853.057 884.23 855.756C879.955 860.216 869.531 869.31 866.954 870.777C866.369 871.129 864.202 872.42 862.152 873.593C846.692 882.57 823.327 882.335 807.223 873.065C785.555 860.509 771.149 840.208 757.856 803.479C750.067 781.77 741.342 747.329 736.95 720.926C730.742 683.844 730.625 646.352 736.657 622.062C742.513 598.123 756.743 584.394 778.703 581.343C788.952 579.876 803.24 580.815 814.133 583.631C822.565 585.743 838.377 591.493 847.161 595.6C849.679 596.774 851.904 597.712 852.021 597.712C852.9 597.712 870.058 606.455 876.558 610.21C888.563 617.075 903.965 626.99 918.136 636.847C946.421 656.679 960.3 664.776 978.161 671.817C1011.31 684.959 1058.86 694.464 1085.03 693.115C1107.4 691.941 1122.86 687.424 1134.17 678.799C1137.8 675.982 1142.72 669.88 1142.72 668.12C1142.72 666.301 1137.21 660.903 1131.18 656.855C1123.74 651.809 1117.24 648.641 1097.62 640.25C1070.92 628.868 1054.47 621.006 1032.04 608.86L1013.24 559.81C1016.87 561.922 1019.97 563.682 1020.03 563.682C1020.15 563.682 1023.19 565.384 1026.82 567.379C1033.09 570.899 1037.31 573.187 1046.97 578.35C1049.25 579.583 1054.23 582.281 1058.15 584.394C1072.62 592.256 1087.32 599.062 1114.9 610.738C1127.26 615.96 1137.56 620.771 1142.25 623.587C1165.79 637.669 1176.68 651.75 1176.68 667.885C1176.62 679.561 1171.35 690.005 1159.87 700.977C1153.73 706.844 1151.09 708.781 1144.12 712.712C1133.58 718.638 1118.82 723.273 1103.77 725.385C1094.23 726.734 1067.64 726.91 1056.93 725.737C1028.7 722.569 997.603 715.235 970.255 705.201C955.849 699.921 938.925 691.355 923.465 681.439C920.479 679.503 904.14 668.531 900.275 665.832C889.442 658.263 886.514 656.268 873.22 647.819C854.188 635.615 833.399 625.523 813.781 618.952C803.826 615.608 798.087 614.493 790.474 614.493C776.302 614.493 771.91 618.248 768.807 632.916C766.289 644.827 765 667.885 766.113 681.615C767.87 703.617 771.793 726.91 777.942 751.729C791.704 807.116 806.168 835.104 825.728 844.257C830.705 846.603 837.147 847.19 841.832 845.606C848.449 843.435 857.409 835.573 870.702 820.083C883.761 804.887 889.734 799.606 898.109 795.734C904.726 792.742 910.055 791.685 918.136 791.685C929.204 791.803 938.925 794.267 956.259 801.367C975.467 809.287 1007.44 822.254 1022.08 828.121C1088.78 854.818 1118.06 866.376 1138.32 873.945C1169.01 885.445 1179.08 889.493 1208.6 901.815C1252.46 920.179 1266.1 926.516 1280.33 934.965C1296.97 944.881 1313.13 959.138 1329 977.914C1344.28 995.985 1351.84 1008.6 1356.99 1024.27C1366.95 1054.83 1366.24 1098.37 1355.23 1136.1C1348.26 1159.98 1339.42 1178.75 1329.93 1189.61C1312.02 1210.14 1287.36 1217.77 1234.95 1218.88C1204.15 1219.53 1187.11 1217.65 1146.82 1209.09C1119.94 1203.39 1107.35 1200.87 1078.3 1195.59C1042.34 1189.02 1023.31 1184.85 984.31 1175.11C971.427 1171.89 955.908 1168.07 949.759 1166.61C932.659 1162.5 899.163 1154.4 884.171 1150.71C852.197 1142.9 807.808 1133.16 787.839 1129.64C770.798 1126.59 734.432 1121.13 723.129 1119.9C716.044 1119.08 707.611 1117.32 702.282 1115.5C693.205 1112.45 677.218 1099.48 677.159 1095.08C677.159 1094.56 676.105 1091.97 674.875 1089.51C672.123 1083.99 670.952 1080.18 670.132 1073.55C669.781 1070.79 668.727 1063.69 667.79 1057.71C666.853 1051.72 665.272 1040.93 664.276 1033.65C663.28 1026.38 662.226 1018.87 661.934 1016.93C660.997 1010.83 659.65 998.391 659.298 991.702C659.064 988.123 658.537 983.136 658.069 980.554C656.722 972.985 655.609 962.013 654.906 949.751C653.208 920.179 651.217 902.049 646.181 870.542C639.446 828.943 636.225 806.764 634.703 791.92C633.005 775.14 632.653 770.211 631.482 747.387C630.018 718.11 630.018 702.796 631.541 679.092C633.063 655.271 632.829 646.704 630.077 624.409C628.905 615.021 626.914 597.712 625.626 585.919C620.531 538.629 614.382 512.05 599.566 473.326C598.395 470.275 596.638 465.64 595.643 463.058C594.706 460.476 592.891 455.841 591.661 452.79C590.431 449.739 587.444 442.17 585.043 436.068Z" fill="#BFD8BD"/>
<text id="Year" fill="white" xml:space="preserve" style="white-space: pre" font-family="SF Pro Display" font-size="50" font-weight="600" letter-spacing="0em"><tspan x="67.0996" y="329.481">2014</tspan></text>
<text id="Circuit-Name" fill="white" fill-opacity="0.6" xml:space="preserve" style="white-space: pre" font-family="SF Pro Display" font-size="30" font-weight="600" letter-spacing="0em"><tspan x="67" y="366.664">Red Bull Ring</tspan></text>
<text id="Driver" fill="white" xml:space="preserve" style="white-space: pre" font-family="SF Pro Display" font-size="30" font-weight="bold" letter-spacing="0em"><tspan x="67.0996" y="180.445">Sergio P&#xe9;rez</tspan></text>
<text id="Time" fill="white" fill-opacity="0.4" xml:space="preserve" style="white-space: pre" font-family="SF Pro Display" font-size="40" font-weight="800" letter-spacing="0em"><tspan x="67" y="142.219">1:12.142</tspan></text>
<path id="Vector_4" d="M598.187 389.717C587.353 365.191 583.723 355.628 580.912 343.952C579.537 338.316 578.231 332.873 577.415 327.436C577.507 320.898 579.009 311.162 587 308C591.586 306.185 598.232 304.525 608.174 312L615 329.5C617.401 343.64 620.878 351.952 633 379C635.342 384.105 644.5 407.964 642.4 407.964C642.4 408.199 655.167 440.527 658.797 449.563C659.734 451.793 662.194 458.423 664.361 464.231C680.406 507.591 685.911 532.351 691.884 587.738C693.348 601.468 695.222 617.661 696.042 623.822C698.209 640.25 698.501 659.73 696.92 684.372C695.398 707.842 695.398 714.002 696.862 742.517C698.97 782.65 700.902 798.726 711.502 864.675C716.714 896.769 718.471 913.315 720.579 949.164C721.106 957.73 721.867 968.291 722.336 972.633C722.804 976.975 723.624 987.008 724.092 994.929C724.561 1002.85 725.322 1012.47 725.791 1016.34C726.318 1020.22 726.845 1024.97 727.021 1026.91C727.196 1028.84 727.899 1033.59 728.485 1037.47C729.129 1041.34 730.183 1048.61 730.827 1053.6C732.057 1063.28 734.751 1074.08 736.859 1077.95C739.143 1082.12 745.877 1084.64 759.112 1086.22C776.329 1088.28 807.893 1093.09 828.155 1096.73C848.827 1100.36 889.936 1109.46 925.541 1118.14C933.622 1120.14 953.767 1125.01 970.34 1129C986.912 1132.99 1011.57 1139.03 1025.09 1142.37C1064.27 1152.17 1085.24 1156.69 1125.53 1163.91C1140.93 1166.66 1159.31 1170.36 1195.51 1177.93C1233.69 1185.85 1259.86 1187.38 1293.89 1183.5C1327.44 1179.75 1337.16 1172.94 1348.23 1145.72C1366.33 1101.19 1367.03 1047.85 1349.87 1019.75C1343.31 1009.01 1327.68 990.235 1318.07 981.493C1311.63 975.684 1301.56 968.115 1295.06 964.125C1289.14 960.546 1275.85 953.858 1265.19 949.164C1245.57 940.422 1193.57 918.947 1177.35 912.845C1173.84 911.496 1169.97 910.029 1168.86 909.56C1167.87 909.14 1161.04 906.569 1153.04 903.559L1150.12 902.46C1125.94 893.424 1125.17 893.131 1083.07 876.175C1072.12 871.774 1060 866.963 1056.13 865.437C1047.58 862.093 1019.06 850.535 990.543 838.859C968.056 829.647 962.434 827.535 956.11 826.185C945.042 823.838 942.348 825.364 928.527 841.792C924.311 846.779 918.748 853.057 916.23 855.756C911.955 860.216 901.531 869.31 898.954 870.777C898.369 871.129 896.202 872.42 894.152 873.593C878.692 882.57 855.327 882.335 839.223 873.065C817.555 860.509 803.149 840.208 789.856 803.479C782.068 781.77 773.342 747.329 768.95 720.926C762.743 683.844 762.625 646.352 768.657 622.062C774.513 598.123 788.743 584.394 810.704 581.343C820.952 579.876 835.24 580.815 846.133 583.631C854.565 585.743 870.377 591.493 879.161 595.6C881.679 596.774 883.904 597.712 884.021 597.712C884.9 597.712 902.058 606.455 908.558 610.21C920.563 617.075 935.965 626.99 950.136 636.847C978.421 656.679 992.3 664.776 1010.16 671.817C1043.31 684.959 1090.86 694.464 1117.03 693.115C1139.4 691.941 1154.86 687.424 1166.17 678.799C1169.8 675.982 1174.72 669.88 1174.72 668.12C1174.72 666.301 1169.21 660.903 1163.18 656.855C1155.74 651.809 1149.24 648.641 1129.62 640.25C1102.92 628.868 1086.47 621.006 1064.04 608.86L1036.81 554.881C1037.8 555.468 1041.55 557.639 1045.24 559.81C1048.87 561.922 1051.97 563.682 1052.03 563.682C1052.15 563.682 1055.19 565.384 1058.82 567.379C1065.09 570.899 1069.31 573.187 1078.97 578.35C1081.25 579.583 1086.23 582.281 1090.15 584.394C1104.62 592.256 1119.32 599.062 1146.9 610.738C1159.26 615.96 1169.56 620.771 1174.25 623.587C1197.79 637.669 1208.68 651.75 1208.68 667.885C1208.62 679.561 1203.35 690.005 1191.87 700.977C1185.73 706.844 1183.09 708.781 1176.12 712.712C1165.58 718.638 1150.82 723.273 1135.77 725.385C1126.23 726.734 1099.64 726.91 1088.93 725.737C1060.7 722.569 1029.6 715.235 1002.26 705.201C987.849 699.921 970.925 691.355 955.465 681.439C952.479 679.503 936.14 668.531 932.275 665.832C921.442 658.263 918.514 656.268 905.22 647.819C886.188 635.615 865.399 625.523 845.781 618.952C835.826 615.608 830.087 614.493 822.474 614.493C808.303 614.493 803.911 618.248 800.807 632.916C798.289 644.827 797 667.885 798.113 681.615C799.87 703.617 803.794 726.91 809.942 751.729C823.704 807.116 838.168 835.104 857.728 844.257C862.705 846.603 869.147 847.19 873.832 845.606C880.449 843.435 889.409 835.573 902.702 820.083C915.761 804.887 921.734 799.606 930.109 795.734C936.726 792.742 942.055 791.685 950.136 791.685C961.204 791.803 970.925 794.267 988.259 801.367C1007.47 809.287 1039.44 822.254 1054.08 828.121C1120.78 854.818 1150.06 866.376 1170.32 873.945C1201.01 885.445 1211.08 889.493 1240.6 901.815C1284.46 920.179 1298.1 926.516 1312.33 934.965C1328.97 944.881 1345.13 959.138 1361 977.914C1376.28 995.985 1383.84 1008.6 1388.99 1024.27C1398.95 1054.83 1398.24 1098.37 1387.23 1136.1C1380.26 1159.98 1371.42 1178.75 1361.93 1189.61C1344.02 1210.14 1319.36 1217.77 1266.95 1218.88C1236.15 1219.53 1219.11 1217.65 1178.82 1209.09C1151.94 1203.39 1139.35 1200.87 1110.3 1195.59C1074.34 1189.02 1055.31 1184.85 1016.31 1175.11C1003.43 1171.89 987.908 1168.07 981.759 1166.61C964.659 1162.5 931.163 1154.4 916.171 1150.71C884.197 1142.9 839.808 1133.16 819.839 1129.64C802.798 1126.59 766.432 1121.13 755.13 1119.9C748.044 1119.08 739.611 1117.32 734.282 1115.5C725.205 1112.45 709.218 1099.48 709.16 1095.08C709.16 1094.56 708.105 1091.97 706.876 1089.51C704.123 1083.99 702.952 1080.18 702.132 1073.55C701.781 1070.79 700.727 1063.69 699.79 1057.71C698.853 1051.72 697.272 1040.93 696.276 1033.65C695.281 1026.38 694.226 1018.87 693.934 1016.93C692.997 1010.83 691.65 998.391 691.298 991.702C691.064 988.123 690.537 983.136 690.069 980.554C688.722 972.985 687.609 962.013 686.906 949.751C685.208 920.179 683.217 902.049 678.181 870.542C671.446 828.943 668.226 806.764 666.703 791.92C665.005 775.14 664.653 770.211 663.482 747.387C662.018 718.11 662.018 702.796 663.541 679.092C665.063 655.271 664.829 646.704 662.077 624.409C660.905 615.021 658.914 597.712 657.626 585.919C652.531 538.629 646.382 512.05 631.567 473.326C630.395 470.275 628.639 465.64 627.643 463.058C626.706 460.476 624.891 455.841 623.661 452.79C622.431 449.739 619.445 442.17 617.044 436.068C607.264 411.25 601.876 398.107 598.187 389.717Z" fill="#98C9A3"/>
<path id="Vector_5" d="M632.186 389.44C621.353 364.915 617.722 355.351 614.911 343.675L598.5 290.5C596.5 282 602.122 273.326 610 271C616.485 269.085 625.781 273.437 632.186 284.5L664.102 377.999C666.444 383.104 676.4 407.218 676.4 407.688C676.4 407.922 689.166 440.251 692.797 449.287C693.734 451.516 696.193 458.146 698.36 463.955C714.406 507.314 719.91 532.074 725.883 587.462C727.347 601.191 729.221 617.385 730.041 623.546C732.208 639.974 732.501 659.453 730.92 684.096C729.397 707.565 729.397 713.726 730.861 742.241C732.969 782.373 734.902 798.45 745.501 864.398C750.713 896.492 752.47 913.038 754.578 948.888C755.105 957.454 755.867 968.015 756.335 972.357C756.804 976.699 757.623 986.732 758.092 994.652C758.56 1002.57 759.322 1012.2 759.79 1016.07C760.317 1019.94 760.844 1024.69 761.02 1026.63C761.196 1028.57 761.898 1033.32 762.484 1037.19C763.128 1041.06 764.182 1048.34 764.826 1053.33C766.056 1063.01 768.75 1073.8 770.858 1077.67C773.142 1081.84 779.876 1084.36 793.111 1085.95C810.328 1088 841.892 1092.81 862.154 1096.45C882.826 1100.09 923.936 1109.18 959.54 1117.87C967.622 1119.86 987.767 1124.73 1004.34 1128.72C1020.91 1132.71 1045.57 1138.75 1059.09 1142.1C1098.27 1151.9 1119.24 1156.41 1159.53 1163.63C1174.93 1166.39 1193.31 1170.08 1229.51 1177.65C1267.69 1185.57 1293.86 1187.1 1327.89 1183.23C1361.44 1179.47 1371.16 1172.67 1382.23 1145.44C1400.33 1100.91 1401.03 1047.58 1383.87 1019.47C1377.31 1008.73 1361.68 989.959 1352.07 981.216C1345.63 975.408 1335.56 967.839 1329.06 963.849C1323.14 960.27 1309.85 953.581 1299.19 948.888C1279.57 940.145 1227.57 918.671 1211.35 912.569C1207.84 911.219 1203.97 909.753 1202.86 909.283C1201.87 908.864 1195.04 906.293 1187.04 903.283L1184.12 902.184C1159.93 893.148 1159.17 892.855 1117.07 875.898C1106.12 871.498 1094 866.687 1090.13 865.161C1081.58 861.817 1053.06 850.258 1024.54 838.582C1002.06 829.371 996.434 827.258 990.109 825.909C979.041 823.562 976.347 825.087 962.527 841.516C958.311 846.503 952.747 852.781 950.229 855.48C945.954 859.939 935.531 869.034 932.954 870.5C932.368 870.852 930.202 872.143 928.152 873.317C912.692 882.294 889.326 882.059 873.222 872.789C851.555 860.233 837.149 839.932 823.855 803.202C816.067 781.493 807.341 747.052 802.949 720.649C796.742 683.568 796.625 646.076 802.656 621.785C808.513 597.847 822.743 584.117 844.703 581.066C854.951 579.6 869.24 580.538 880.132 583.355C888.565 585.467 904.376 591.217 913.16 595.324C915.679 596.497 917.904 597.436 918.021 597.436C918.899 597.436 936.058 606.178 942.558 609.933C954.563 616.798 969.964 626.714 984.136 636.571C1012.42 656.402 1026.3 664.499 1044.16 671.54C1077.31 684.683 1124.86 694.188 1151.03 692.838C1173.4 691.665 1188.86 687.147 1200.17 678.522C1203.8 675.706 1208.72 669.604 1208.72 667.844C1208.72 666.025 1203.21 660.627 1197.18 656.578C1189.74 651.533 1183.24 648.364 1163.62 639.974L1124.15 584.117C1138.62 591.979 1153.32 598.786 1180.9 610.462C1193.26 615.683 1203.56 620.495 1208.25 623.311C1231.79 637.392 1242.68 651.474 1242.68 667.609C1242.62 679.285 1237.35 689.729 1225.87 700.701C1219.73 706.568 1217.09 708.504 1210.12 712.435C1199.58 718.361 1184.82 722.996 1169.77 725.109C1160.23 726.458 1133.64 726.634 1122.92 725.461C1094.7 722.292 1063.6 714.958 1036.25 704.925C1021.85 699.645 1004.92 691.078 989.465 681.163C986.478 679.226 970.14 668.254 966.275 665.555C955.441 657.987 952.513 655.992 939.22 647.543C920.188 635.339 899.399 625.247 879.781 618.676C869.826 615.331 864.087 614.217 856.474 614.217C842.302 614.217 837.91 617.972 834.806 632.64C832.288 644.551 831 667.609 832.112 681.339C833.869 703.341 837.793 726.634 843.942 751.453C857.703 806.84 872.168 834.827 891.727 843.98C896.705 846.327 903.147 846.914 907.831 845.33C914.449 843.159 923.409 835.297 936.702 819.807C949.761 804.611 955.734 799.33 964.108 795.458C970.726 792.465 976.055 791.409 984.136 791.409C995.204 791.526 1004.92 793.991 1022.26 801.09C1041.47 809.011 1073.44 821.978 1088.08 827.845C1154.78 854.541 1184.06 866.1 1204.32 873.669C1235.01 885.169 1245.08 889.217 1274.6 901.538C1318.46 919.903 1332.1 926.24 1346.33 934.689C1362.96 944.604 1379.13 958.862 1395 977.637C1410.28 995.709 1417.84 1008.32 1422.99 1023.99C1432.94 1054.56 1432.24 1098.09 1421.23 1135.82C1414.26 1159.7 1405.42 1178.48 1395.93 1189.33C1378.01 1209.87 1353.36 1217.49 1300.95 1218.61C1270.15 1219.25 1253.1 1217.38 1212.82 1208.81C1185.94 1203.12 1173.35 1200.59 1144.3 1195.31C1108.34 1188.74 1089.31 1184.58 1050.31 1174.84C1037.43 1171.61 1021.91 1167.8 1015.76 1166.33C998.659 1162.22 965.162 1154.13 950.171 1150.43C918.197 1142.63 873.808 1132.89 853.838 1129.37C836.797 1126.31 800.431 1120.86 789.129 1119.63C782.043 1118.8 773.61 1117.04 768.281 1115.23C759.204 1112.17 743.217 1099.21 743.159 1094.81C743.159 1094.28 742.105 1091.7 740.875 1089.23C738.123 1083.72 736.951 1079.9 736.132 1073.27C735.78 1070.52 734.726 1063.42 733.789 1057.43C732.852 1051.45 731.271 1040.65 730.276 1033.38C729.28 1026.1 728.226 1018.59 727.933 1016.65C726.996 1010.55 725.649 998.114 725.298 991.425C725.064 987.846 724.537 982.859 724.068 980.278C722.721 972.709 721.609 961.737 720.906 949.474C719.208 919.903 717.216 901.773 712.18 870.266C705.446 828.666 702.225 806.488 700.702 791.644C699.004 774.863 698.653 769.935 697.482 747.111C696.018 717.833 696.018 702.52 697.54 678.816C699.063 654.994 698.828 646.428 696.076 624.132C694.905 614.745 692.914 597.436 691.625 585.643C686.531 538.352 680.382 511.773 665.566 473.049C664.395 469.998 662.638 465.363 661.642 462.782C660.705 460.2 658.89 455.565 657.66 452.514C656.431 449.463 653.444 441.894 651.043 435.792C641.263 410.973 635.876 397.831 632.186 389.44Z" fill="#77BFA3"/>
<text id="Fifth-Time" transform="translate(584.984 270.589) rotate(-111.79)" fill="white" xml:space="preserve" style="white-space: pre" font-family="SF Pro Display" font-size="20" letter-spacing="0em"><tspan x="0" y="28.1094">1:12.142</tspan></text>
<text id="Fifth-Time_2" transform="translate(558.613 303.661) rotate(-111.79)" fill="white" xml:space="preserve" style="white-space: pre" font-family="SF Pro Display" font-size="20" letter-spacing="0em"><tspan x="0" y="28.1094">1:12.217</tspan></text>
<text id="Fifth-Time_3" transform="translate(540.727 345.446) rotate(-111.79)" fill="white" xml:space="preserve" style="white-space: pre" font-family="SF Pro Display" font-size="20" letter-spacing="0em"><tspan x="0" y="28.1094">1:12.257</tspan></text>
<text id="Fifth-Time_4" transform="translate(521.469 383.303) rotate(-111.79)" fill="white" xml:space="preserve" style="white-space: pre" font-family="SF Pro Display" font-size="20" letter-spacing="0em"><tspan x="0" y="28.1094">1:12.299</tspan></text>
<text id="Fifth-Time_5" transform="translate(501.727 414.446) rotate(-111.79)" fill="white" xml:space="preserve" style="white-space: pre" font-family="SF Pro Display" font-size="20" letter-spacing="0em"><tspan x="0" y="28.1094">1:12.374</tspan></text>
</g>
<defs>
<clipPath id="clip0_241_5">
<rect width="1000" height="1000" fill="white"/>
</clipPath>
</defs>
</svg>
