<svg width="1000" height="800" viewBox="0 0 1000 1000" fill="none" xmlns="http://www.w3.org/2000/svg">
<g id="Frame 3" clip-path="url(#clip0_237_2)">
<path id="Vector 24" d="M1100.75 8.77921L495.901 495.866L525.291 610.583L740.084 546.93L1242.41 153.931L1100.75 8.77921Z" fill="#474747" stroke="#474747"/>
<path id="Vector" d="M683.352 542.319C673.89 547.822 662.215 554.683 657.369 557.517C652.583 560.344 643.122 565.847 636.348 569.799C619.523 579.529 609.061 593.796 598.5 602.123C594.889 605.024 587.003 610.972 580.947 615.396C574.952 619.814 568.549 624.485 566.829 625.857C543.445 644.014 506.875 676.887 481.075 703.07C476.619 707.521 471.889 712.349 470.472 713.686C469.117 715.017 465.165 718.926 461.67 722.437C458.168 725.88 453.626 730.063 451.559 731.682C447.364 734.927 434.601 742.673 425.741 747.346C407.073 757.077 390.185 775.051 378.33 797.784C376.13 802.048 371.901 809.727 368.978 814.835C363.873 823.72 361.303 828.649 355.324 840.817C347.839 856.064 327.508 885.711 315.15 899.364C304.195 911.543 282.8 940.965 275.642 953.682C268.277 966.839 265.397 972.426 250.554 1003.67C240.097 1025.55 236.039 1035.84 225.43 1067.01L219.976 1083L222.577 1112.12L225.184 1141.31L227.636 1142.63C232.747 1145.51 236.865 1146.22 243.981 1145.41C252.436 1144.45 257.094 1142.26 269.345 1133.61C279.281 1126.53 289.963 1117.49 299.039 1108.37C300.79 1106.65 302.596 1104.85 303.113 1104.44C304.249 1103.42 313.703 1094.38 319.977 1088.27C322.634 1085.69 326.196 1082.24 327.892 1080.59C337.911 1071.01 349.875 1058.44 370.501 1035.54C376.033 1029.38 383.553 1021.4 387.158 1017.73C390.763 1014.07 395.329 1009.47 397.183 1007.53L397.396 1007.31C399.329 1005.35 402.384 1002.24 404.405 1000.34C406.557 998.298 409.949 995.007 412.041 992.97C416.631 988.642 426.674 979.335 430.656 975.769C436.627 970.385 444.67 963.451 444.914 963.423C444.974 963.416 446.756 962.038 448.75 960.289C450.689 958.615 453.967 956.098 455.985 954.623L459.56 952.002L458.82 954.717C456.155 964.087 455.816 967.863 456.569 976.984C457.358 985.824 457.371 985.961 460.013 990.784C464.659 999.463 472.496 1005.36 482.68 1007.94C494.433 1010.9 524.07 1004.98 549.977 994.427C568.707 986.765 578.473 981.228 618.093 955.693C623.56 952.235 632.455 946.588 637.873 943.275C643.346 939.885 656.151 931.927 666.391 925.505C704.163 901.979 718.411 895.033 738.409 890.551C750.517 887.863 765.621 888.434 779.54 892.255C790.685 895.283 806.315 902.44 817.018 909.464C819.367 910.997 821.709 912.462 822.287 912.743C824.855 913.974 844.181 928.811 850.851 934.7C860.661 943.417 875.322 958.298 890.105 974.55C905.442 991.5 910.049 996.308 922.3 1008.28C927.686 1013.55 935.171 1021.01 938.823 1024.75C942.542 1028.55 949.37 1035.53 954.032 1040.26C967.555 1054.09 993.898 1075.96 1006.52 1083.87C1029.43 1098.16 1044.64 1104.81 1066.89 1110.39C1087.24 1115.42 1097.6 1116.46 1114.37 1115.04C1144.07 1112.57 1166.74 1103.64 1189.98 1085.22C1207.25 1071.56 1219.48 1048.92 1222.67 1024.82C1223.41 1019.27 1223.45 1016.36 1222.77 1008.68C1221.78 997.579 1220.71 993.893 1216.17 985.687C1213.76 981.391 1211.53 978.46 1207.62 974.611C1196.02 963.052 1183.89 957.228 1165.12 954.096C1148.16 951.312 1143.08 949.534 1126.06 940.527C1123.61 939.213 1118.07 936.312 1113.81 934.094C1099.77 926.826 1092.08 921.192 1091.81 918.177C1091.61 915.984 1093.52 909.123 1097.6 897.031C1102.9 881.409 1103.98 877.618 1105.09 870.778C1107.63 855.261 1106.12 842.42 1100.27 830.623C1096.15 822.299 1084.91 811.322 1073.68 804.566C1061.67 797.413 1049.6 792.967 1027.81 787.685C1019.78 785.758 1006.92 782.163 999.274 779.777C978.602 773.26 971.551 771.36 951.118 766.824C907.421 757.035 890.63 752.017 880.11 745.665C871.269 740.23 867.927 735.833 865.398 726.083C863.636 719.429 863.072 709.664 864.017 703.05C864.732 697.985 867.975 687.512 870.648 681.671C873.315 675.762 879.362 667.116 885.794 660.018C897.879 646.742 909.443 637.955 942.637 616.817C949.204 612.611 957.692 607.219 961.529 604.776C972.578 597.778 994.906 584.31 1003.69 579.506C1024 568.205 1052.97 554.814 1063.75 551.654L1066.15 550.967L1069.21 554.981C1076.3 564.282 1084.14 573.638 1088.96 578.699C1094.44 584.307 1104.06 592.353 1106.95 593.756C1107.91 594.132 1110.6 595.418 1112.98 596.534C1119.2 599.497 1123.9 600.555 1129.78 600.373C1139.33 599.983 1146.83 595.879 1153.61 587.219C1162.22 576.207 1163.55 562.904 1157.78 545.145C1153.36 531.387 1143.82 510.526 1136.26 498.093C1130.92 489.284 1115.17 464.905 1112.24 461.015C1110.7 458.905 1108.47 455.905 1107.28 454.309C1101.68 446.638 1088.51 431.31 1083.96 427.119C1076.59 420.203 1067.2 413.514 1062.37 411.64C1046.57 405.333 1035.14 409.466 1000.7 433.86L1023.61 464.697C1035.8 456.115 1047.12 449.363 1049.73 449.067C1051.01 448.922 1057.99 454.084 1062.1 458.186C1067.97 464.096 1085.02 485.767 1090.03 493.713C1090.82 494.939 1093.9 499.851 1096.97 504.625C1100.03 509.399 1104.11 515.79 1106.04 518.825C1110.26 525.545 1118.3 542.007 1121.67 550.763C1123.03 554.346 1124.31 557.662 1124.48 558.128C1125.18 559.847 1121.91 557.588 1116.22 552.35C1113.07 549.453 1107.7 543.625 1104.37 539.433C1092.28 524.399 1090.77 522.632 1086.52 519.031C1079.06 512.608 1073 510.803 1062.85 511.955C1055.3 512.81 1050.22 514.355 1036.3 520.156C1009.34 531.312 973.209 551.191 936.447 575.018C934.069 576.602 928.95 579.813 925.113 582.256C889.116 605.027 872.061 618.382 857.886 635.079C851.272 642.89 842.879 655.539 839.367 662.998C835.752 670.676 831.052 685.468 829.767 693.09C827.869 704.173 827.829 709.23 829.424 723.655C831.19 739.306 833.214 746.137 839.065 756.618C842.279 762.345 843.807 764.317 849.85 770.07C865.983 785.615 883.985 792.503 941.649 805.277C961.895 809.765 966.414 810.844 972.103 812.622C974.189 813.285 979.878 815.063 984.751 816.656C1000.24 821.545 1005.84 823.056 1028.83 828.686C1043.85 832.383 1058.34 839.185 1065.14 845.821C1069.77 850.279 1070.5 851.512 1070.85 855.418C1071.34 860.9 1070.32 865.375 1064.2 884.205C1061.07 893.905 1058.03 904.495 1057.4 907.819C1055.21 919.697 1056.82 931.627 1061.93 940.669C1066.53 948.801 1078.04 958.709 1092.15 966.662C1099.33 970.693 1125.2 983.819 1130.37 986.07C1136.12 988.533 1144.8 990.802 1155.22 992.597C1169.95 995.149 1174.2 996.606 1180.89 1001.32C1188.1 1006.38 1189.63 1012.58 1186.71 1024.54C1183.52 1037.7 1176.49 1047.78 1164.38 1056.56C1153.24 1064.67 1143.09 1069.28 1127.59 1073.26C1111.37 1077.38 1097.4 1077.1 1076.55 1072.05C1051.93 1066.05 1032.77 1056.46 1008.51 1038.03C998.557 1030.43 981.518 1015.06 972.571 1005.69C968.64 1001.57 959.852 992.599 952.914 985.772C934.315 967.391 928.564 961.468 916.976 948.661C895.985 925.498 884.446 913.932 869.062 900.586C861.869 894.341 841.113 878.628 836.975 876.329C836.002 875.747 834.116 874.576 832.801 873.618C827.106 869.695 811.165 861.812 799.454 857.256C790.219 853.596 774.864 850.215 763.416 849.298C754.383 848.592 729.933 851.364 720.901 854.119C711.937 856.935 697.421 862.942 688.02 867.745C676.801 873.517 630.965 901.695 590.688 927.443C584.76 931.231 577.323 936.019 574.125 938.043C554.248 950.749 536.223 958.746 512.675 965.431C503.26 968.021 492.465 969.591 492.348 968.289C492.312 967.878 493.191 963.971 494.339 959.619C497.653 946.506 498.167 941.949 497 932.321C496.126 924.598 495.864 923.728 493.502 919.289C491.572 915.562 490.056 913.727 486.947 911.241C472.117 899.287 455.417 904.918 421.65 933.389C393.36 957.155 364.131 986.219 329.377 1024.98C321.669 1033.6 314.526 1040.99 305.759 1049.46C303.893 1051.26 300.385 1054.64 298.014 1056.98C272.627 1081.6 255.932 1096.92 255.317 1096.23C255.189 1096.17 257.534 1089.4 260.492 1081.24C263.449 1073.09 268.909 1057.86 272.639 1047.33C278.858 1029.6 284.404 1016.72 295.578 993.923C308.155 968.27 322.31 947.906 345.325 922.177C356.997 909.086 360.735 904.163 372.064 886.543C383.173 869.224 388.545 859.893 394.093 848.397C396.571 843.132 399.233 837.846 399.919 836.591C400.545 835.344 401.11 834.103 401.092 833.897C400.872 831.43 415.951 809.024 421.981 802.941C425.872 799.039 428.437 795.425 429.421 792.683C430.441 789.66 434.527 786.567 444.031 781.544C463.156 771.415 476.021 762.065 487.876 749.646C495.469 741.793 520.23 717.043 522.06 715.52C522.632 715.04 529.1 709.046 536.529 702.112C543.959 695.179 550.257 689.342 550.61 689.164C550.962 688.985 552.276 687.867 553.522 686.688C554.762 685.439 560.812 680.254 566.928 675.131C573.044 670.007 579.039 664.897 580.176 663.868C581.374 662.833 582.401 661.955 582.584 661.934C582.705 661.92 584.493 660.61 586.499 658.998C588.445 657.393 594.209 653.14 599.176 649.601C604.138 645.992 611.16 640.697 614.778 637.864C627.753 627.671 635.825 614.852 654.748 603.846C658.956 601.43 669.694 595.091 678.687 589.848C687.675 584.538 698.596 578.177 702.919 575.679C707.249 573.25 717.309 563.72 727.573 557.572C735.061 553.043 734.061 553.734 739.943 548.748C752.456 533.934 747.48 523.781 743.89 519.634C738.114 513.815 728.172 512.242 722.667 515.502C708.636 524.041 697.268 534.206 683.352 542.319Z" fill="#394053"/>
<path id="Vector_2" d="M614.285 541.597C621.059 537.645 632.322 526.98 636.874 524.41L677.308 502.115C684.402 497.754 696.319 500.764 701.044 507.321C705.57 513.601 704.619 526.357 693.531 535.924L682.424 542.573C678.101 545.07 667.18 551.431 658.192 556.742C649.199 561.984 636.893 573.228 632.685 575.644C613.762 586.65 607.539 596.75 594.564 606.942C590.946 609.775 583.924 615.071 578.962 618.679C573.995 622.219 568.231 626.472 566.285 628.077C564.279 629.689 562.491 630.999 562.37 631.013C562.187 631.034 561.16 631.911 559.962 632.947C558.825 633.976 552.83 639.086 546.714 644.209C540.598 649.333 534.548 654.518 533.308 655.766C532.062 656.946 530.749 658.064 530.396 658.242C530.043 658.421 523.745 664.257 516.316 671.191C508.886 678.125 502.418 684.119 501.846 684.599C500.016 686.122 475.255 710.872 467.662 718.724C455.808 731.144 442.942 740.493 423.817 750.622C414.313 755.645 410.227 758.739 409.207 761.762C408.223 764.504 405.658 768.117 401.767 772.02C395.737 778.103 380.658 800.509 380.878 802.976C380.896 803.182 380.331 804.422 379.706 805.67C379.019 806.925 376.358 812.21 373.879 817.475C368.331 828.972 362.959 838.303 351.85 855.621C340.521 873.242 336.783 878.165 325.112 891.256C302.097 916.985 287.941 937.349 275.364 963.002C264.19 985.796 258.644 998.677 252.425 1016.41C248.696 1026.94 243.236 1042.16 240.278 1050.32C237.32 1058.48 234.976 1065.25 235.103 1065.31C235.718 1066 252.413 1050.68 277.8 1026.06C280.171 1023.72 283.679 1020.34 285.546 1018.54C294.312 1010.07 301.455 1002.68 309.163 994.056C343.917 955.298 373.146 926.234 401.436 902.468C435.203 873.997 451.903 868.365 466.733 880.32C469.842 882.805 471.358 884.641 473.288 888.368C475.651 892.807 475.913 893.677 476.787 901.4C477.953 911.027 477.439 915.585 474.125 928.697C472.978 933.05 472.098 936.957 472.134 937.368C472.251 938.67 483.046 937.1 492.461 934.509C516.009 927.825 534.034 919.828 553.911 907.122C557.109 905.098 564.546 900.309 570.474 896.522C610.751 870.774 656.587 842.596 667.806 836.824C677.207 832.02 691.723 826.013 700.688 823.197C709.719 820.443 734.169 817.67 743.202 818.377C754.65 819.294 770.005 822.675 779.24 826.335C790.951 830.891 806.892 838.774 812.587 842.697C813.902 843.655 815.788 844.826 816.762 845.407C820.899 847.707 841.655 863.42 848.848 869.665C864.232 883.011 875.771 894.577 896.762 917.739C908.35 930.546 914.102 936.47 932.7 954.85C939.638 961.678 948.426 970.649 952.357 974.772C961.304 984.14 978.343 999.513 988.298 1007.11C1012.55 1025.54 1031.72 1035.13 1056.34 1041.13C1077.19 1046.17 1091.16 1046.46 1107.38 1042.34C1122.87 1038.36 1133.03 1033.75 1144.16 1025.64C1156.28 1016.85 1163.31 1006.78 1166.49 993.616C1169.42 981.655 1167.88 975.461 1160.67 970.395C1153.98 965.685 1149.74 964.228 1135.01 961.675C1124.59 959.881 1115.91 957.612 1110.16 955.149C1104.98 952.898 1079.11 939.772 1071.93 935.741C1057.83 927.787 1046.32 917.879 1041.72 909.748C1036.61 900.705 1034.99 888.775 1037.19 876.898C1037.81 873.573 1040.86 862.983 1043.99 853.284C1050.11 834.454 1051.12 829.978 1050.63 824.496C1050.28 820.59 1049.56 819.357 1044.92 814.899C1038.12 808.263 1023.63 801.462 1008.62 797.765C985.629 792.135 980.026 790.624 964.537 785.735C959.664 784.142 953.976 782.364 951.889 781.701C946.201 779.923 941.681 778.844 921.435 774.356C863.772 761.581 845.77 754.693 829.636 739.148C823.593 733.396 822.065 731.424 818.851 725.697C813 715.216 810.977 708.385 809.21 692.733C807.615 678.309 807.655 673.251 809.553 662.169C810.838 654.547 815.538 639.755 819.153 632.077C822.665 624.618 831.058 611.968 837.672 604.158C851.848 587.461 868.902 574.106 904.899 551.334C908.736 548.892 913.856 545.681 916.233 544.096C952.996 520.269 989.128 500.39 1016.09 489.235C1030.01 483.434 1035.09 481.889 1042.63 481.033C1052.79 479.882 1058.85 481.687 1066.3 488.109C1070.56 491.711 1072.07 493.478 1084.16 508.512C1087.48 512.704 1092.86 518.532 1096 521.428C1101.69 526.667 1104.97 528.926 1104.26 527.206C1104.1 526.741 1102.82 523.425 1101.45 519.841C1098.09 511.086 1090.05 494.623 1085.82 487.904C1083.89 484.869 1079.82 478.478 1076.75 473.704C1073.68 468.929 1070.6 464.018 1069.82 462.792C1064.81 454.846 1047.76 433.175 1041.89 427.265C1037.77 423.163 1030.8 418.001 1029.52 418.145L1042.15 380.719C1046.99 382.593 1056.37 389.282 1063.75 396.198C1068.3 400.389 1081.46 415.717 1087.06 423.388C1088.25 424.984 1090.49 427.984 1092.03 430.094C1094.95 433.984 1110.71 458.363 1116.04 467.172C1123.6 479.605 1133.15 500.466 1137.57 514.224C1143.33 531.983 1142 545.285 1133.4 556.297C1126.62 564.958 1119.12 569.061 1109.57 569.452C1103.69 569.634 1098.99 568.575 1092.76 565.612C1090.39 564.497 1087.69 563.211 1086.74 562.834C1083.85 561.432 1074.22 553.386 1068.74 547.777C1063.93 542.716 1056.09 533.361 1048.99 524.059L1045.93 520.046L1043.54 520.733C1032.76 523.893 1003.79 537.284 983.479 548.585C974.692 553.389 952.364 566.857 941.315 573.855C937.478 576.298 928.99 581.69 922.423 585.896C889.23 607.034 877.665 615.821 865.58 629.097C859.148 636.194 853.101 644.84 850.434 650.75C847.761 656.59 844.518 667.064 843.803 672.129C842.858 678.743 843.423 688.508 845.184 695.161C847.714 704.911 851.055 709.309 859.896 714.744C870.416 721.096 887.207 726.114 930.904 735.903C951.338 740.439 958.388 742.339 979.06 748.855C986.707 751.242 999.562 754.837 1007.6 756.764C1029.39 762.046 1041.46 766.492 1053.46 773.645C1064.7 780.4 1075.94 791.378 1080.06 799.701C1085.9 811.498 1087.42 824.34 1084.87 839.857C1083.76 846.697 1082.69 850.488 1077.39 866.11C1073.31 878.201 1071.4 885.062 1071.6 887.255C1071.87 890.271 1079.56 895.905 1093.6 903.173C1097.85 905.39 1103.4 908.292 1105.85 909.606C1122.87 918.613 1127.94 920.391 1144.9 923.175C1163.68 926.307 1175.81 932.13 1187.41 943.69C1191.32 947.539 1193.54 950.47 1195.95 954.765C1200.5 962.972 1201.56 966.658 1202.55 977.759C1203.24 985.434 1203.19 988.347 1202.46 993.898C1199.27 1018 1187.03 1040.64 1169.76 1054.3C1146.52 1072.71 1123.85 1081.65 1094.15 1084.12C1077.38 1085.54 1067.03 1084.5 1046.68 1079.47C1024.43 1073.89 1009.21 1067.24 986.31 1052.95C973.684 1045.03 947.341 1023.17 933.818 1009.34C929.156 1004.61 922.328 997.628 918.609 993.827C914.958 990.088 907.472 982.63 902.086 977.357C889.835 965.387 885.228 960.579 869.891 943.629C855.108 927.377 840.447 912.496 830.637 903.779C823.967 897.89 804.641 883.053 802.073 881.821C801.495 881.541 799.153 880.076 796.804 878.543C786.101 871.519 770.471 864.362 759.326 861.334C745.407 857.513 730.304 856.941 718.195 859.629C698.197 864.112 683.95 871.057 646.177 894.583C635.937 901.005 623.132 908.964 617.659 912.353C612.241 915.667 603.346 921.313 597.879 924.771C558.259 950.307 548.493 955.844 529.763 963.505C503.857 974.057 474.219 979.979 462.466 977.02C452.282 974.437 444.445 968.542 439.799 959.862C437.157 955.04 437.145 954.902 436.355 946.063C435.602 936.942 435.941 933.165 438.606 923.795L439.347 921.081L435.771 923.701C433.753 925.176 430.476 927.694 428.536 929.367C426.542 931.116 424.76 932.495 424.7 932.502C424.456 932.529 416.413 939.464 410.443 944.848C406.46 948.414 396.417 957.721 391.827 962.048C389.736 964.085 386.343 967.377 384.191 969.421C382.17 971.318 379.115 974.425 377.182 976.391L376.969 976.608C375.115 978.549 370.549 983.15 366.944 986.812C363.339 990.475 355.819 998.457 350.287 1004.62C329.661 1027.52 317.698 1040.09 307.679 1049.67C305.982 1051.32 302.42 1054.77 299.763 1057.35C293.489 1063.46 284.036 1072.49 282.899 1073.52C282.382 1073.93 280.576 1075.72 278.825 1077.45C269.749 1086.57 259.067 1095.61 249.132 1102.69C236.88 1111.34 232.222 1113.53 223.767 1114.49C216.651 1115.3 212.533 1114.59 207.422 1111.71L204.97 1110.39L202.363 1081.2L199.762 1052.08L205.216 1036.09C215.826 1004.92 219.883 994.627 230.34 972.745C245.183 941.505 248.063 935.917 255.428 922.761C262.586 910.044 283.981 880.622 294.936 868.443C307.294 854.79 327.625 825.143 335.11 809.896C341.089 797.728 343.659 792.798 348.764 783.913C351.687 778.806 355.916 771.127 358.116 766.863C369.971 744.13 386.859 726.156 405.527 716.425C414.387 711.752 427.15 704.005 431.345 700.761C433.413 699.142 437.954 694.958 441.456 691.516C444.951 688.004 448.903 684.095 450.259 682.765C451.675 681.428 456.405 676.6 460.861 672.149C486.662 645.965 523.231 613.093 546.615 594.936C548.335 593.564 554.738 588.893 560.733 584.475C566.789 580.05 574.675 574.103 578.286 571.202C588.847 562.874 598.659 552.992 614.285 541.597Z" fill="#4E4A59"/>
<path id="Vector_3" d="M597.23 508.278C604.004 504.326 614.066 493.585 618.852 490.758L625.691 487.003C638.177 482.783 647.165 488.716 650.026 495.396C653.799 504.204 650.052 515.878 642.48 521.978L640.17 523.089C631.172 529.133 619.838 539.91 615.63 542.325C597.666 554.562 587.76 565.205 574.785 575.398C571.168 578.231 564.145 583.527 559.184 587.135C554.216 590.675 548.452 594.928 546.506 596.533C544.5 598.145 542.712 599.455 542.591 599.469C542.408 599.489 541.381 600.367 540.183 601.403C539.046 602.432 533.052 607.542 526.935 612.665C520.819 617.789 514.769 622.974 513.529 624.222C512.283 625.402 510.97 626.52 510.617 626.698C510.264 626.877 503.966 632.713 496.537 639.647C489.107 646.581 482.639 652.575 482.067 653.055C480.237 654.578 455.476 679.328 447.883 687.18C436.029 699.6 423.163 708.949 404.039 719.078C394.534 724.101 390.448 727.195 389.428 730.218C388.444 732.96 385.879 736.573 381.989 740.476C375.958 746.558 360.879 768.965 361.099 771.432C361.118 771.638 360.553 772.878 359.927 774.126C359.24 775.381 356.579 780.666 354.1 785.931C348.553 797.428 343.181 806.759 332.071 824.077C320.742 841.698 317.004 846.621 305.333 859.712C282.318 885.441 268.162 905.805 255.585 931.458C244.411 954.252 238.865 967.133 232.646 984.866C228.917 995.395 223.457 1010.62 220.499 1018.78C217.541 1026.93 215.197 1033.71 215.325 1033.76C215.939 1034.45 232.634 1019.13 258.022 994.518C260.393 992.172 263.9 988.798 265.767 986.995C274.533 978.525 281.676 971.139 289.385 962.512C324.138 923.754 353.367 894.69 381.657 870.924C415.425 842.453 432.124 836.821 446.954 848.776C450.064 851.261 451.579 853.097 453.509 856.824C455.872 861.263 456.134 862.133 457.008 869.856C458.175 879.483 457.66 884.041 454.346 897.153C453.199 901.506 452.319 905.413 452.356 905.824C452.472 907.126 463.268 905.556 472.682 902.965C496.23 896.281 514.255 888.284 534.132 875.578C537.33 873.554 544.767 868.765 550.695 864.978C590.973 839.23 636.808 811.051 648.027 805.28C657.429 800.476 671.944 794.469 680.909 791.653C689.94 788.899 714.39 786.126 723.424 786.833C734.871 787.75 750.226 791.131 759.461 794.791C771.173 799.346 787.113 807.23 792.809 811.153C794.123 812.111 796.009 813.282 796.983 813.863C801.12 816.163 821.876 831.876 829.069 838.121C844.453 851.467 855.992 863.033 876.983 886.195C888.571 899.002 894.323 904.926 912.921 923.306C919.859 930.134 928.647 939.105 932.578 943.228C941.525 952.596 958.564 967.969 968.52 975.562C992.775 993.993 1011.94 1003.59 1036.56 1009.59C1057.41 1014.63 1071.38 1014.91 1087.6 1010.79C1103.1 1006.82 1113.25 1002.21 1124.38 994.091C1136.5 985.311 1143.53 975.239 1146.71 962.072C1149.64 950.111 1148.1 943.917 1140.89 938.851C1134.21 934.141 1129.96 932.684 1115.23 930.131C1104.81 928.337 1096.13 926.068 1090.38 923.605C1085.2 921.354 1059.33 908.228 1052.15 904.197C1038.05 896.243 1026.54 886.335 1021.94 878.204C1016.83 869.161 1015.21 857.231 1017.41 845.354C1018.03 842.029 1021.08 831.439 1024.21 821.74C1030.33 802.91 1031.34 798.434 1030.85 792.952C1030.5 789.046 1029.78 787.813 1025.14 783.355C1018.34 776.719 1003.85 769.918 988.839 766.221C965.85 760.591 960.247 759.08 944.758 754.191C939.885 752.598 934.197 750.82 932.11 750.157C926.422 748.379 921.902 747.3 901.657 742.812C843.993 730.037 825.991 723.149 809.857 707.604C803.814 701.852 802.286 699.879 799.072 694.153C793.221 683.672 791.198 676.841 789.431 661.189C787.836 646.765 787.876 641.707 789.774 630.625C791.059 623.003 795.759 608.211 799.374 600.533C802.886 593.074 811.279 580.424 817.893 572.614C832.069 555.916 849.123 542.561 885.12 519.79C888.957 517.348 894.077 514.137 896.454 512.552C933.217 488.725 969.349 468.846 996.307 457.691C1010.23 451.89 1015.31 450.344 1022.85 449.489C1033.01 448.338 1039.07 450.142 1046.52 456.565C1050.78 460.167 1052.29 461.934 1064.38 476.968C1067.7 481.16 1073.08 486.988 1076.23 489.884C1081.92 495.123 1085.19 497.382 1084.48 495.662C1084.32 495.197 1083.04 491.88 1081.67 488.297C1078.31 479.542 1070.27 463.079 1066.04 456.36C1064.11 453.325 1060.04 446.934 1056.97 442.16C1053.9 437.385 1050.82 432.474 1050.04 431.248C1045.03 423.302 1027.98 401.631 1022.11 395.721C1017.99 391.619 1011.02 386.456 1009.74 386.601L1022.37 349.174C1027.21 351.049 1036.59 357.738 1043.97 364.654C1048.52 368.845 1061.69 384.172 1067.29 391.844C1068.47 393.44 1070.71 396.44 1072.25 398.549C1075.17 402.44 1090.93 426.819 1096.26 435.628C1103.82 448.061 1113.37 468.922 1117.79 482.679C1123.55 500.438 1122.22 513.741 1113.62 524.753C1106.84 533.414 1099.34 537.517 1089.79 537.908C1083.91 538.09 1079.21 537.031 1072.98 534.068C1070.61 532.953 1067.91 531.666 1066.96 531.29C1064.07 529.887 1054.44 521.842 1048.96 516.233C1044.15 511.172 1036.31 501.817 1029.21 492.515L1026.15 488.501L1023.76 489.188C1012.98 492.349 984.009 505.74 963.7 517.041C954.913 521.844 932.585 535.313 921.536 542.311C917.7 544.753 909.211 550.146 902.644 554.352C869.451 575.49 857.886 584.277 845.801 597.553C839.37 604.65 833.322 613.296 830.655 619.206C827.982 625.046 824.739 635.52 824.024 640.585C823.079 647.199 823.644 656.964 825.405 663.617C827.935 673.367 831.276 677.765 840.117 683.2C850.638 689.552 867.428 694.57 911.125 704.359C931.559 708.895 938.609 710.795 959.281 717.311C966.929 719.698 979.783 723.293 987.819 725.22C1009.61 730.502 1021.68 734.948 1033.68 742.1C1044.92 748.856 1056.16 759.834 1060.28 768.157C1066.13 779.954 1067.64 792.796 1065.09 808.313C1063.99 815.153 1062.91 818.944 1057.61 834.565C1053.53 846.657 1051.62 853.519 1051.82 855.711C1052.09 858.726 1059.78 864.361 1073.82 871.629C1078.07 873.846 1083.62 876.748 1086.07 878.062C1103.09 887.069 1108.17 888.847 1125.13 891.631C1143.9 894.763 1156.03 900.586 1167.63 912.146C1171.54 915.995 1173.76 918.926 1176.18 923.221C1180.72 931.428 1181.78 935.114 1182.78 946.215C1183.46 953.89 1183.41 956.803 1182.68 962.354C1179.49 986.459 1167.26 1009.1 1149.98 1022.75C1126.74 1041.17 1104.07 1050.11 1074.37 1052.58C1057.6 1053.99 1047.25 1052.95 1026.9 1047.92C1004.65 1042.35 989.433 1035.7 966.531 1021.4C953.905 1013.49 927.562 991.628 914.039 977.794C909.377 973.062 902.549 966.084 898.83 962.283C895.179 958.544 887.693 951.086 882.307 945.813C870.056 933.843 865.449 929.035 850.112 912.085C835.329 895.833 820.668 880.952 810.858 872.235C804.188 866.346 784.862 851.509 782.294 850.277C781.717 849.997 779.374 848.532 777.025 846.998C766.322 839.975 750.692 832.818 739.547 829.79C725.628 825.969 710.525 825.397 698.416 828.085C678.419 832.568 664.171 839.513 626.398 863.039C616.159 869.461 603.353 877.42 597.88 880.809C592.463 884.123 583.567 889.769 578.1 893.227C538.48 918.763 528.714 924.3 509.984 931.961C484.078 942.513 454.44 948.435 442.687 945.476C432.504 942.893 424.666 936.998 420.02 928.318C417.378 923.496 417.366 923.358 416.576 914.519C415.823 905.398 416.162 901.621 418.827 892.251L419.568 889.537L415.993 892.157C413.974 893.632 410.697 896.15 408.757 897.823C406.763 899.572 404.982 900.951 404.921 900.958C404.678 900.985 396.634 907.92 390.664 913.304C386.682 916.87 376.638 926.177 372.048 930.504C369.957 932.541 366.564 935.833 364.412 937.877C362.391 939.774 359.336 942.881 357.403 944.847L357.19 945.064C355.336 947.005 350.77 951.606 347.165 955.268C343.56 958.931 336.04 966.913 330.509 973.078C309.883 995.975 297.919 1008.55 287.9 1018.13C286.204 1019.77 282.641 1023.22 279.984 1025.81C273.71 1031.92 264.257 1040.95 263.12 1041.98C262.603 1042.38 260.798 1044.18 259.047 1045.9C249.97 1055.03 239.288 1064.06 229.353 1071.14C217.101 1079.8 212.443 1081.99 203.989 1082.95C196.872 1083.75 192.754 1083.04 187.643 1080.16L185.191 1078.85L182.584 1049.66L179.984 1020.53L185.437 1004.55C196.047 973.372 200.104 963.083 210.561 941.201C225.404 909.961 228.284 904.373 235.649 891.217C242.808 878.5 264.203 849.078 275.157 836.899C287.515 823.246 307.846 793.599 315.331 778.352C321.31 766.184 323.88 761.254 328.985 752.369C331.908 747.262 336.137 739.583 338.337 735.319C350.192 712.586 367.08 694.612 385.748 684.881C394.608 680.208 407.371 672.461 411.566 669.217C413.634 667.598 418.175 663.414 421.677 659.972C425.173 656.46 429.124 652.551 430.48 651.221C431.896 649.884 436.626 645.056 441.082 640.605C466.883 614.421 503.452 581.549 526.836 563.392C528.556 562.02 534.959 557.348 540.954 552.931C547.01 548.506 554.896 542.559 558.507 539.657C569.068 531.33 582.544 520.651 597.23 508.278Z" fill="#6E6362"/>
<path id="Vector_4" d="M523.275 519.428C529.331 515.003 537.217 509.056 540.829 506.155C545.628 502.371 545.156 502.656 545.68 502.196C546.094 501.832 546.988 500.952 552.596 497.567C558.688 493.89 573.448 495.205 577.348 502.278C581.083 509.052 583.895 519.841 569.271 532.014L557.107 541.896C553.489 544.728 546.466 550.024 541.505 553.632C536.537 557.172 530.773 561.425 528.828 563.03C526.821 564.642 525.034 565.952 524.912 565.966C524.73 565.987 523.702 566.865 522.504 567.9C521.368 568.929 515.373 574.039 509.257 579.162C503.14 584.286 497.091 589.471 495.851 590.719C494.604 591.899 493.291 593.017 492.938 593.195C492.586 593.374 486.287 599.21 478.858 606.144C471.429 613.078 464.96 619.072 464.389 619.552C462.559 621.075 437.797 645.825 430.204 653.677C418.35 666.097 405.484 675.447 386.36 685.575C376.856 690.599 372.77 693.692 371.749 696.715C370.766 699.457 368.201 703.07 364.31 706.973C358.279 713.056 343.2 735.462 343.421 737.929C343.439 738.135 342.874 739.376 342.248 740.623C341.561 741.878 338.9 747.163 336.421 752.428C330.874 763.925 325.502 773.256 314.392 790.575C303.064 808.195 299.326 813.118 287.654 826.209C264.639 851.938 250.484 872.302 237.906 897.955C226.733 920.749 221.186 933.63 214.967 951.363C211.238 961.892 205.778 977.117 202.82 985.274C199.862 993.431 197.518 1000.2 197.646 1000.26C198.261 1000.95 214.955 985.629 240.343 961.015C242.714 958.67 246.222 955.295 248.088 953.492C256.855 945.022 263.998 937.636 271.706 929.009C306.459 890.251 335.689 861.187 363.978 837.421C397.746 808.95 414.446 803.318 429.275 815.273C432.385 817.759 433.9 819.594 435.831 823.321C438.193 827.76 438.455 828.63 439.329 836.353C440.496 845.981 439.981 850.538 436.667 863.651C435.52 868.003 434.64 871.91 434.677 872.321C434.793 873.623 445.589 872.053 455.003 869.463C478.552 862.778 496.576 854.781 516.453 842.075C519.652 840.051 527.088 835.262 533.017 831.475C573.294 805.727 619.129 777.549 630.349 771.777C639.75 766.973 654.266 760.967 663.23 758.15C672.261 755.396 696.712 752.623 705.745 753.33C717.193 754.247 732.547 757.628 741.782 761.288C753.494 765.844 769.435 773.727 775.13 777.65C776.444 778.608 778.331 779.779 779.304 780.361C783.441 782.66 804.198 798.373 811.391 804.618C826.775 817.964 838.313 829.53 859.305 852.692C870.893 865.499 876.644 871.423 895.242 889.803C902.18 896.631 910.968 905.602 914.9 909.725C923.846 919.094 940.886 934.466 950.841 942.059C975.096 960.491 994.261 970.085 1018.88 976.084C1039.73 981.127 1053.7 981.412 1069.92 977.288C1085.42 973.316 1095.57 968.704 1106.71 960.588C1118.82 951.808 1125.85 941.736 1129.04 928.569C1131.96 916.608 1130.42 910.414 1123.21 905.348C1116.53 900.638 1112.28 899.181 1097.55 896.629C1087.13 894.834 1078.45 892.565 1072.7 890.102C1067.52 887.851 1041.65 874.725 1034.47 870.694C1020.37 862.74 1008.86 852.832 1004.26 844.701C999.153 835.659 997.534 823.729 999.73 811.851C1000.35 808.526 1003.4 797.936 1006.53 788.237C1012.65 769.407 1013.66 764.931 1013.17 759.449C1012.83 755.543 1012.1 754.31 1007.46 749.852C1000.67 743.217 986.174 736.415 971.16 732.718C948.171 727.088 942.568 725.577 927.079 720.688C922.206 719.095 916.518 717.317 914.431 716.654C908.743 714.876 904.223 713.797 883.978 709.309C826.314 696.535 808.312 689.646 792.179 674.102C786.136 668.349 784.608 666.377 781.393 660.65C775.542 650.169 773.519 643.338 771.753 627.687C770.157 613.262 770.197 608.204 772.095 597.122C773.381 589.5 778.081 574.708 781.696 567.03C785.207 559.571 793.601 546.921 800.214 539.111C814.39 522.414 831.445 509.059 867.441 486.288C871.278 483.845 876.398 480.634 878.775 479.049C915.538 455.223 951.67 435.343 978.628 424.188C992.548 418.387 997.633 416.842 1005.17 415.986C1015.33 414.835 1021.39 416.64 1028.85 423.063C1033.1 426.664 1034.61 428.431 1046.7 443.465C1050.03 447.657 1055.4 453.485 1058.55 456.381C1064.24 461.62 1067.51 463.879 1066.8 462.16C1066.64 461.694 1065.36 458.378 1064 454.795C1060.63 446.039 1052.59 429.577 1048.36 422.857C1046.43 419.822 1042.36 413.431 1039.29 408.657C1036.23 403.882 1033.15 398.971 1032.36 397.745L1049.61 358.341C1050.79 359.937 1053.03 362.937 1054.57 365.047C1057.5 368.937 1073.25 393.316 1078.58 402.125C1086.15 414.558 1095.69 435.419 1100.11 449.177C1105.87 466.936 1104.54 480.238 1095.94 491.251C1089.16 499.911 1081.66 504.014 1072.11 504.405C1066.23 504.587 1061.53 503.528 1055.3 500.566C1052.93 499.45 1050.24 498.164 1049.28 497.787C1046.39 496.385 1036.76 488.339 1031.29 482.73C1026.47 477.669 1018.63 468.314 1011.54 459.012L1008.47 454.999L1006.08 455.686C995.301 458.846 966.331 472.237 946.021 483.538C937.234 488.342 914.906 501.81 903.858 508.808C900.021 511.251 891.533 516.643 884.966 520.849C851.772 541.987 840.208 550.774 828.123 564.05C821.691 571.147 815.643 579.793 812.976 585.703C810.303 591.543 807.061 602.017 806.346 607.082C805.4 613.696 805.965 623.461 807.727 630.114C810.256 639.864 813.598 644.262 822.439 649.697C832.959 656.049 849.75 661.067 893.446 670.856C913.88 675.392 920.931 677.292 941.603 683.808C949.25 686.195 962.104 689.79 970.141 691.717C991.931 696.999 1004 701.445 1016.01 708.598C1027.24 715.354 1038.48 726.331 1042.6 734.655C1048.45 746.451 1049.96 759.293 1047.42 774.81C1046.31 781.65 1045.23 785.441 1039.93 801.063C1035.85 813.154 1033.94 820.016 1034.14 822.208C1034.41 825.224 1042.1 830.858 1056.14 838.126C1060.39 840.343 1065.94 843.245 1068.39 844.559C1085.41 853.566 1090.49 855.344 1107.45 858.128C1126.22 861.26 1138.35 867.083 1149.95 878.643C1153.86 882.492 1156.09 885.423 1158.5 889.718C1163.04 897.925 1164.11 901.611 1165.1 912.712C1165.78 920.387 1165.74 923.3 1165 928.851C1161.81 952.956 1149.58 975.594 1132.3 989.25C1109.07 1007.67 1086.4 1016.61 1056.7 1019.07C1039.93 1020.49 1029.57 1019.45 1009.22 1014.42C986.971 1008.84 971.755 1002.19 948.852 987.901C936.227 979.988 909.883 958.125 896.36 944.291C891.699 939.559 884.87 932.581 881.152 928.78C877.5 925.041 870.014 917.583 864.629 912.31C852.378 900.34 847.771 895.532 832.434 878.582C817.65 862.33 802.989 847.449 793.179 838.732C786.51 832.843 767.183 818.006 764.616 816.774C764.038 816.494 761.695 815.029 759.347 813.496C748.643 806.472 733.013 799.315 721.869 796.287C707.95 792.466 692.846 791.894 680.737 794.582C660.74 799.065 646.492 806.01 608.72 829.537C598.48 835.958 585.674 843.917 580.202 847.306C574.784 850.62 565.888 856.267 560.422 859.724C520.801 885.26 511.036 890.797 492.305 898.459C466.399 909.01 436.762 914.932 425.009 911.973C414.825 909.39 406.987 903.495 402.342 894.815C399.699 889.993 399.687 889.856 398.898 881.016C398.145 871.895 398.483 868.119 401.148 858.749L401.889 856.034L398.314 858.655C396.295 860.129 393.018 862.647 391.079 864.32C389.084 866.069 387.303 867.448 387.242 867.455C386.999 867.483 378.955 874.417 372.985 879.801C369.003 883.367 358.959 892.674 354.369 897.001C352.278 899.038 348.886 902.33 346.734 904.374C344.712 906.271 341.657 909.378 339.724 911.344L339.511 911.561C337.657 913.502 333.092 918.103 329.487 921.766C325.882 925.428 318.362 933.41 312.83 939.575C292.204 962.472 280.24 975.042 270.221 984.623C268.525 986.269 264.962 989.719 262.306 992.304C256.032 998.415 246.578 1007.45 245.441 1008.48C244.924 1008.88 243.119 1010.68 241.368 1012.4C232.292 1021.53 221.609 1030.56 211.674 1037.64C199.422 1046.3 194.764 1048.49 186.31 1049.44C179.194 1050.25 175.075 1049.54 169.964 1046.66L167.512 1045.35L164.906 1016.15L162.305 987.03L167.759 971.045C178.368 939.87 182.426 929.58 192.882 907.698C207.725 876.458 210.605 870.871 217.97 857.714C225.129 844.997 246.524 815.575 257.478 803.396C269.837 789.743 290.167 760.096 297.653 744.849C303.631 732.681 306.202 727.752 311.306 718.866C314.229 713.759 318.459 706.08 320.658 701.816C332.513 679.083 349.401 661.109 368.07 651.378C376.929 646.705 389.693 638.958 393.888 635.714C395.955 634.095 400.496 629.912 403.998 626.469C407.494 622.958 411.445 619.049 412.801 617.718C414.218 616.381 418.947 611.553 423.403 607.102C449.204 580.919 485.773 548.046 509.157 529.889C510.878 528.517 517.28 523.846 523.275 519.428Z" fill="#839073"/>
<path id="Vector_5" d="M500.086 492.299C494.091 496.716 487.689 501.388 485.968 502.76C462.584 520.916 426.015 553.789 400.215 579.973C395.758 584.423 391.029 589.251 389.612 590.589C388.256 591.919 384.305 595.828 380.809 599.339C377.308 602.782 372.766 606.966 370.699 608.585C366.504 611.829 353.74 619.575 344.881 624.249C326.212 633.979 309.324 651.953 297.469 674.687C295.27 678.951 291.04 686.629 288.117 691.737C283.013 700.622 280.443 705.551 274.464 717.72C266.978 732.966 246.648 762.613 234.289 776.267C223.335 788.446 201.94 817.867 194.781 830.585C187.416 843.741 184.536 849.328 169.693 880.568C159.237 902.451 155.179 912.74 144.57 943.915L139.116 959.901L141.717 989.024L144.324 1018.22L146.775 1019.53C151.886 1022.41 156.005 1023.12 163.121 1022.31C171.575 1021.36 176.233 1019.17 188.485 1010.51C198.42 1003.43 209.103 994.397 218.179 985.269C219.93 983.548 221.735 981.751 222.252 981.346C223.389 980.318 232.843 971.285 239.117 965.175C241.773 962.589 245.336 959.14 247.032 957.494C257.051 947.913 269.015 935.343 289.641 912.445C295.173 906.281 302.693 898.298 306.298 894.636C309.903 890.974 314.468 886.372 316.322 884.432L316.535 884.215C318.468 882.249 321.523 879.142 323.545 877.245C325.697 875.201 329.089 871.909 331.18 869.872C335.77 865.544 345.814 856.238 349.796 852.671C355.766 847.287 363.81 840.353 364.053 840.326C364.114 840.319 365.895 838.94 367.89 837.191C369.829 835.517 373.106 833 375.125 831.525L378.7 828.905L377.959 831.619C375.294 840.989 374.956 844.765 375.709 853.886C376.498 862.726 376.51 862.863 379.153 867.686C383.798 876.365 391.636 882.26 401.82 884.844C413.573 887.802 443.21 881.881 469.116 871.329C487.847 863.668 497.612 858.13 537.233 832.595C542.699 829.137 551.595 823.491 557.013 820.177C562.485 816.788 575.291 808.829 585.531 802.407C623.303 778.881 637.551 771.936 657.548 767.453C669.657 764.765 684.761 765.337 698.68 769.158C709.824 772.185 725.455 779.343 736.158 786.366C738.506 787.9 740.849 789.365 741.427 789.645C743.994 790.877 763.321 805.714 769.99 811.602C779.8 820.319 794.461 835.201 809.245 851.452C824.582 868.403 829.189 873.21 841.44 885.181C842.922 886.632 844.564 888.249 846.241 889.909C850.656 894.278 855.316 898.941 857.963 901.651C861.681 905.451 868.51 912.43 873.171 917.162C886.694 930.995 913.038 952.858 925.663 960.772C948.566 975.064 963.782 981.715 986.029 987.291C1006.38 992.32 1016.74 993.361 1033.51 991.945C1063.21 989.477 1085.88 980.538 1109.12 962.121C1126.39 948.464 1138.62 925.827 1141.81 901.722C1142.55 896.171 1142.59 893.258 1141.91 885.583C1140.92 874.482 1139.85 870.796 1135.31 862.589C1132.9 858.294 1130.67 855.362 1126.76 851.514C1115.16 839.954 1103.03 834.131 1084.26 830.998C1067.3 828.214 1062.22 826.436 1045.2 817.43C1042.75 816.116 1037.21 813.214 1032.95 810.997C1018.91 803.729 1011.22 798.094 1010.95 795.079C1010.75 792.886 1012.66 786.025 1016.74 773.933C1022.04 758.311 1023.12 754.521 1024.23 747.681C1026.77 732.164 1025.26 719.322 1019.41 707.525C1015.29 699.202 1004.05 688.224 992.817 681.468C980.813 674.315 968.742 669.869 946.952 664.588C938.916 662.661 926.061 659.065 918.414 656.679C915.451 655.745 912.768 654.906 910.286 654.141C895.446 649.564 887.763 647.613 870.257 643.727C826.561 633.938 809.77 628.919 799.25 622.567C790.409 617.132 787.067 612.735 784.538 602.985C782.776 596.332 782.211 586.567 783.157 579.953C783.872 574.888 787.114 564.414 789.787 558.573C792.454 552.664 798.502 544.018 804.934 536.92C817.019 523.644 828.583 514.857 861.777 493.719C868.344 489.514 876.832 484.121 880.669 481.679C891.717 474.681 914.045 461.212 922.832 456.409C937.355 448.327 956.307 439.177 969.868 433.464C975.271 431.187 979.818 429.457 982.889 428.556L985.285 427.869L988.347 431.883C995.444 441.184 1003.28 450.54 1008.1 455.601C1013.57 461.21 1023.2 469.255 1026.09 470.658C1027.05 471.034 1029.74 472.321 1032.12 473.436C1038.34 476.399 1043.04 477.458 1048.92 477.275C1058.47 476.885 1065.97 472.781 1072.75 464.121C1081.35 453.109 1082.69 439.806 1076.92 422.047C1072.5 408.289 1062.96 387.429 1055.4 374.996C1050.06 366.187 1034.31 341.808 1031.38 337.917L1016.1 381.527C1019.17 386.302 1023.25 392.693 1025.18 395.727C1029.4 402.447 1037.44 418.909 1040.81 427.665C1042.17 431.248 1043.45 434.564 1043.61 435.03C1044.32 436.75 1041.05 434.491 1035.36 429.252C1032.21 426.355 1026.84 420.527 1023.51 416.336C1011.42 401.302 1009.91 399.535 1005.66 395.933C998.202 389.51 992.143 387.705 981.986 388.857C974.444 389.712 969.359 391.258 955.439 397.059C928.481 408.214 892.349 428.093 855.586 451.92C853.209 453.505 848.089 456.716 844.252 459.158C808.256 481.929 791.201 495.284 777.025 511.982C770.412 519.792 762.018 532.442 758.507 539.9C754.892 547.578 750.192 562.371 748.906 569.992C747.008 581.075 746.969 586.133 748.564 600.557C750.33 616.208 752.353 623.039 758.204 633.52C761.419 639.247 762.947 641.22 768.99 646.972C785.123 662.517 803.125 669.405 860.789 682.179C881.034 686.667 885.554 687.747 891.242 689.525C892.776 690.012 896.255 691.102 899.926 692.277C901.25 692.701 902.599 693.137 903.89 693.559C919.379 698.448 924.982 699.958 947.971 705.589C962.985 709.286 977.477 716.087 984.275 722.723C988.913 727.181 989.637 728.414 989.986 732.32C990.475 737.802 989.462 742.278 983.341 761.108C980.214 770.807 977.166 781.397 976.541 784.721C974.345 796.599 975.964 808.529 981.072 817.572C985.669 825.703 997.182 835.611 1011.29 843.564C1018.47 847.596 1044.34 860.721 1049.51 862.972C1055.26 865.435 1063.94 867.704 1074.36 869.499C1089.09 872.052 1093.34 873.508 1100.03 878.219C1107.24 883.285 1108.77 889.479 1105.85 901.439C1102.66 914.606 1095.63 924.679 1083.52 933.459C1072.38 941.574 1062.23 946.187 1046.73 950.159C1030.51 954.282 1016.54 953.998 995.692 948.955C971.072 942.955 951.907 933.361 927.652 914.93C917.697 907.337 900.657 891.964 891.711 882.596C887.779 878.473 878.991 869.502 872.053 862.674C866.114 856.805 861.485 852.205 857.558 848.247C849.187 839.808 844.003 834.28 836.116 825.563C815.124 802.401 803.586 790.834 788.202 777.489C781.009 771.244 760.252 755.531 756.115 753.231C755.142 752.649 753.255 751.479 751.941 750.52C746.246 746.598 730.305 738.714 718.594 734.158C709.358 730.499 694.004 727.117 682.556 726.2C673.523 725.494 649.072 728.266 640.041 731.021C631.077 733.837 616.561 739.844 607.16 744.648C595.941 750.419 550.105 778.597 509.828 804.346C503.899 808.133 496.463 812.922 493.264 814.946C473.387 827.652 455.363 835.648 431.814 842.333C422.4 844.923 411.604 846.494 411.488 845.192C411.451 844.78 412.331 840.874 413.478 836.521C416.792 823.409 417.307 818.851 416.14 809.223C415.266 801.501 415.004 800.631 412.642 796.191C410.711 792.465 409.196 790.629 406.086 788.144C391.257 776.189 374.557 781.82 340.789 810.291C312.5 834.058 283.27 863.122 248.517 901.88C240.809 910.507 233.666 917.892 224.899 926.362C223.033 928.166 219.525 931.54 217.154 933.886C191.766 958.499 175.072 973.821 174.457 973.129C174.329 973.075 176.673 966.302 179.631 958.145C182.589 949.988 188.049 934.763 191.778 924.234C197.997 906.501 203.544 893.62 214.717 870.825C227.295 845.172 241.45 824.809 264.465 799.08C276.137 785.989 279.875 781.066 291.203 763.445C302.313 746.126 307.685 736.795 313.232 725.299C315.711 720.034 318.372 714.748 319.059 713.494C319.685 712.246 320.25 711.005 320.232 710.8C320.011 708.333 333.531 682.118 339.562 676.035L362.527 655.73C381.652 645.602 394.517 636.252 406.372 623.832C413.965 615.98 439.37 593.945 441.2 592.423C441.771 591.943 448.24 585.948 455.669 579.015C463.098 572.081 469.397 566.244 469.749 566.066C470.102 565.888 471.415 564.77 472.662 563.59C473.902 562.342 479.951 557.157 486.068 552.033C492.184 546.909 498.179 541.8 499.316 540.771C500.513 539.735 501.541 538.857 501.723 538.836C501.845 538.823 503.632 537.513 505.639 535.901C507.584 534.296 513.348 530.043 518.316 526.503L520.555 525.023C538.69 511.263 537.415 499.288 530.706 490.654C524.838 484.109 512.93 482.911 506.012 488.457L500.086 492.299Z" fill="#7CAE7A"/>
<text id="Fifth-Time" transform="matrix(0.794551 -0.607198 0.515665 0.856791 739 494.652)" fill="white" xml:space="preserve" style="white-space: pre" font-family="SF Pro Display" font-size="20" letter-spacing="0em"><tspan x="0" y="28.1094">1:51.583</tspan></text>
<text id="Fifth-Time_2" transform="matrix(0.794551 -0.607198 0.515665 0.85679 698 478.652)" fill="white" xml:space="preserve" style="white-space: pre" font-family="SF Pro Display" font-size="20" letter-spacing="0em"><tspan x="0" y="28.1094">1:51.692</tspan></text>
<text id="Fifth-Time_3" transform="matrix(0.794551 -0.607198 0.515665 0.85679 635.327 468.893)" fill="white" xml:space="preserve" style="white-space: pre" font-family="SF Pro Display" font-size="20" letter-spacing="0em"><tspan x="0" y="28.1094">1:51.746</tspan></text>
<text id="Fifth-Time_4" transform="matrix(0.794551 -0.607198 0.515665 0.85679 575 472.599)" fill="white" xml:space="preserve" style="white-space: pre" font-family="SF Pro Display" font-size="20" letter-spacing="0em"><tspan x="0" y="28.1094">1:51.778</tspan></text>
<text id="Fifth-Time_5" transform="matrix(0.79455 -0.607198 0.515664 0.856791 530 466.284)" fill="white" xml:space="preserve" style="white-space: pre" font-family="SF Pro Display" font-size="20" letter-spacing="0em"><tspan x="0" y="28.1094">1:51.974</tspan></text>
<text id="Year" fill="white" xml:space="preserve" style="white-space: pre" font-family="SF Pro Display" font-size="50" font-weight="600" letter-spacing="0em"><tspan x="67.0996" y="329.481">2016</tspan></text>
<text id="Circuit-Name" fill="white" fill-opacity="0.6" xml:space="preserve" style="white-space: pre" font-family="SF Pro Display" font-size="30" font-weight="600" letter-spacing="0em"><tspan x="67.0996" y="380.542">Circuit de&#10;</tspan><tspan x="67.0996" y="410.542">Spa Francorchamps</tspan></text>
<text id="Driver" fill="white" xml:space="preserve" style="white-space: pre" font-family="SF Pro Display" font-size="30" font-weight="bold" letter-spacing="0em"><tspan x="67.0996" y="180.444">Lewis Hamilton</tspan></text>
<text id="Time" fill="white" fill-opacity="0.4" xml:space="preserve" style="white-space: pre" font-family="SF Pro Display" font-size="40" font-weight="800" letter-spacing="0em"><tspan x="67" y="142.219">1:51.583</tspan></text>
</g>
<defs>
<clipPath id="clip0_237_2">
<rect width="1000" height="1000" fill="white"/>
</clipPath>
</defs>
</svg>
